<svg id="SVGRoot" version="1.1" viewBox="0 0 256 256" xmlns="http://www.w3.org/2000/svg" xmlns:xlink="http://www.w3.org/1999/xlink">
   <defs>
      <filter id="filter4087" x="-.10655" y="-.13022" width="1.2131" height="1.2604" color-interpolation-filters="sRGB">
         <feGaussianBlur in="SourceGraphic" result="result0" stdDeviation="0.5"/>
         <feTurbulence baseFrequency="0.2" numOctaves="10" result="result1" seed="300" type="fractalNoise"/>
         <feGaussianBlur result="result8" stdDeviation="0.5"/>
         <feDisplacementMap in="result0" in2="result8" result="result7" scale="5" xChannelSelector="R"/>
         <feComposite in="result7" in2="result1" operator="in" result="result2"/>
         <feComposite in="result0" in2="result2" k3="3" operator="arithmetic"/>
         <feBlend in2="result2" mode="multiply" result="fbSourceGraphic"/>
         <feColorMatrix in="fbSourceGraphic" result="fbSourceGraphicAlpha" values="1 0 0 -1 0 1 0 1 -1 0 1 0 0 -1 0 -1.8 -0.5 0 5.7 -3.5 "/>
         <feGaussianBlur in="fbSourceGraphicAlpha" result="result0" stdDeviation="0.5"/>
         <feSpecularLighting result="result6" specularExponent="3" surfaceScale="5">
            <feDistantLight azimuth="225" elevation="10"/>
         </feSpecularLighting>
         <feComposite in="result6" in2="fbSourceGraphicAlpha" operator="in" result="result2"/>
         <feComposite in="fbSourceGraphic" in2="result2" k2="1" k3="0.7" operator="arithmetic" result="result4"/>
      </filter>
      <filter id="filter4134" x="-.12098" y="-.15205" width="1.2417" height="1.3041" color-interpolation-filters="sRGB">
         <feGaussianBlur in="SourceGraphic" result="result0" stdDeviation="0.5"/>
         <feTurbulence baseFrequency="0.2" numOctaves="10" result="result1" seed="300" type="fractalNoise"/>
         <feGaussianBlur result="result8" stdDeviation="0.5"/>
         <feDisplacementMap in="result0" in2="result8" result="result7" scale="5" xChannelSelector="R"/>
         <feComposite in="result7" in2="result1" operator="in" result="result2"/>
         <feComposite in="result0" in2="result2" k3="3" operator="arithmetic"/>
         <feBlend in2="result2" mode="multiply" result="fbSourceGraphic"/>
         <feColorMatrix in="fbSourceGraphic" result="fbSourceGraphicAlpha" values="1 0 0 -1 0 1 0 1 -1 0 1 0 0 -1 0 -1.8 -0.5 0 5.7 -3.5 "/>
         <feGaussianBlur in="fbSourceGraphicAlpha" result="result0" stdDeviation="0.5"/>
         <feSpecularLighting result="result6" specularExponent="3" surfaceScale="5">
            <feDistantLight azimuth="225" elevation="10"/>
         </feSpecularLighting>
         <feComposite in="result6" in2="fbSourceGraphicAlpha" operator="in" result="result2"/>
         <feComposite in="fbSourceGraphic" in2="result2" k2="1" k3="0.7" operator="arithmetic" result="result4"/>
      </filter>
      <filter id="filter4181" x="-.11766" y="-.15631" width="1.2352" height="1.3121" color-interpolation-filters="sRGB">
         <feGaussianBlur in="SourceGraphic" result="result0" stdDeviation="0.5"/>
         <feTurbulence baseFrequency="0.2" numOctaves="10" result="result1" seed="300" type="fractalNoise"/>
         <feGaussianBlur result="result8" stdDeviation="0.5"/>
         <feDisplacementMap in="result0" in2="result8" result="result7" scale="5" xChannelSelector="R"/>
         <feComposite in="result7" in2="result1" operator="in" result="result2"/>
         <feComposite in="result0" in2="result2" k3="3" operator="arithmetic"/>
         <feBlend in2="result2" mode="multiply" result="fbSourceGraphic"/>
         <feColorMatrix in="fbSourceGraphic" result="fbSourceGraphicAlpha" values="1 0 0 -1 0 1 0 1 -1 0 1 0 0 -1 0 -1.8 -0.5 0 5.7 -3.5 "/>
         <feGaussianBlur in="fbSourceGraphicAlpha" result="result0" stdDeviation="0.5"/>
         <feSpecularLighting result="result6" specularExponent="3" surfaceScale="5">
            <feDistantLight azimuth="225" elevation="10"/>
         </feSpecularLighting>
         <feComposite in="result6" in2="fbSourceGraphicAlpha" operator="in" result="result2"/>
         <feComposite in="fbSourceGraphic" in2="result2" k2="1" k3="0.7" operator="arithmetic" result="result4"/>
      </filter>
      <filter id="filter4304" x="-.11086" y="-.14836" width="1.2218" height="1.2963" color-interpolation-filters="sRGB">
         <feGaussianBlur in="SourceGraphic" result="result0" stdDeviation="0.5"/>
         <feTurbulence baseFrequency="0.2" numOctaves="10" result="result1" seed="300" type="fractalNoise"/>
         <feGaussianBlur result="result8" stdDeviation="0.5"/>
         <feDisplacementMap in="result0" in2="result8" result="result7" scale="5" xChannelSelector="R"/>
         <feComposite in="result7" in2="result1" operator="in" result="result2"/>
         <feComposite in="result0" in2="result2" k3="3" operator="arithmetic"/>
         <feBlend in2="result2" mode="multiply" result="fbSourceGraphic"/>
         <feColorMatrix in="fbSourceGraphic" result="fbSourceGraphicAlpha" values="1 0 0 -1 0 1 0 1 -1 0 1 0 0 -1 0 -1.8 -0.5 0 5.7 -3.5 "/>
         <feGaussianBlur in="fbSourceGraphicAlpha" result="result0" stdDeviation="0.5"/>
         <feSpecularLighting result="result6" specularExponent="3" surfaceScale="5">
            <feDistantLight azimuth="225" elevation="10"/>
         </feSpecularLighting>
         <feComposite in="result6" in2="fbSourceGraphicAlpha" operator="in" result="result2"/>
         <feComposite in="fbSourceGraphic" in2="result2" k2="1" k3="0.7" operator="arithmetic" result="result4"/>
      </filter>
      <filter id="filter4332" x="-.10337" y="-.13408" width="1.2067" height="1.2682" color-interpolation-filters="sRGB">
         <feGaussianBlur in="SourceGraphic" result="result0" stdDeviation="0.5"/>
         <feTurbulence baseFrequency="0.2" numOctaves="10" result="result1" seed="300" type="fractalNoise"/>
         <feGaussianBlur result="result8" stdDeviation="0.5"/>
         <feDisplacementMap in="result0" in2="result8" result="result7" scale="5" xChannelSelector="R"/>
         <feComposite in="result7" in2="result1" operator="in" result="result2"/>
         <feComposite in="result0" in2="result2" k3="3" operator="arithmetic"/>
         <feBlend in2="result2" mode="multiply" result="fbSourceGraphic"/>
         <feColorMatrix in="fbSourceGraphic" result="fbSourceGraphicAlpha" values="1 0 0 -1 0 1 0 1 -1 0 1 0 0 -1 0 -1.8 -0.5 0 5.7 -3.5 "/>
         <feGaussianBlur in="fbSourceGraphicAlpha" result="result0" stdDeviation="0.5"/>
         <feSpecularLighting result="result6" specularExponent="3" surfaceScale="5">
            <feDistantLight azimuth="225" elevation="10"/>
         </feSpecularLighting>
         <feComposite in="result6" in2="fbSourceGraphicAlpha" operator="in" result="result2"/>
         <feComposite in="fbSourceGraphic" in2="result2" k2="1" k3="0.7" operator="arithmetic" result="result4"/>
      </filter>
      <filter id="filter4360" x="-.10732" y="-.13356" width="1.2146" height="1.2671" color-interpolation-filters="sRGB">
         <feGaussianBlur in="SourceGraphic" result="result0" stdDeviation="0.5"/>
         <feTurbulence baseFrequency="0.2" numOctaves="10" result="result1" seed="300" type="fractalNoise"/>
         <feGaussianBlur result="result8" stdDeviation="0.5"/>
         <feDisplacementMap in="result0" in2="result8" result="result7" scale="5" xChannelSelector="R"/>
         <feComposite in="result7" in2="result1" operator="in" result="result2"/>
         <feComposite in="result0" in2="result2" k3="3" operator="arithmetic"/>
         <feBlend in2="result2" mode="multiply" result="fbSourceGraphic"/>
         <feColorMatrix in="fbSourceGraphic" result="fbSourceGraphicAlpha" values="1 0 0 -1 0 1 0 1 -1 0 1 0 0 -1 0 -1.8 -0.5 0 5.7 -3.5 "/>
         <feGaussianBlur in="fbSourceGraphicAlpha" result="result0" stdDeviation="0.5"/>
         <feSpecularLighting result="result6" specularExponent="3" surfaceScale="5">
            <feDistantLight azimuth="225" elevation="10"/>
         </feSpecularLighting>
         <feComposite in="result6" in2="fbSourceGraphicAlpha" operator="in" result="result2"/>
         <feComposite in="fbSourceGraphic" in2="result2" k2="1" k3="0.7" operator="arithmetic" result="result4"/>
      </filter>
   </defs>
   <image x="-541.03" y="-549.44" width="369.34" height="493.06" image-rendering="optimizeSpeed" preserveAspectRatio="none" xlink:href="file:///home/astraldev/Downloads/IMG-20220302-WA0001.jpg"/>
   <g fill="none" stroke-linecap="round">
      <g stroke="#000">
         <g stroke-linejoin="round" stroke-width="10">
            <path d="m128 151.41c-28.928 16.701-57.855 33.407-86.783 50.108"/>
            <path d="m128 59.709v91.701"/>
            <path d="m128 151.41c28.927 16.701 57.854 33.402 86.78 50.103"/>
         </g>
         <path d="m233.47 50.968h-210.94c-0.22141 41.246-0.20713 82.51-0.0075 123.76 1.8695 32.998 29.67 58.85 59.941 67.994 21.252 7.0506 43.908 5.3862 65.925 4.9494 34.767-2.4901 71.102-22.956 82.232-57.563 4.8366-16.206 2.3686-33.272 2.979-49.927-0.0827-29.736 0.16818-59.479-0.13058-89.21z" stroke-width="1.8069"/>
         <path d="m225.52 59.708h-195.03c0.07453 36.996-0.14987 73.998 0.11366 110.99 1.8305 32.059 29.727 56.642 59.385 64.259 18.491 5.1584 37.888 3.7587 56.847 3.3871 32.733-2.308 66.981-22.148 76.451-55.113 3.8049-15.293 1.6813-31.191 2.2374-46.79v-76.733z" stroke-width="10"/>
         <rect x="20.376" y="7.9226" width="215.25" height="35.809" stroke-width="1.8242"/>
      </g>
      <rect x="26.381" y="12.319" width="203.24" height="27.016" stroke="currentColor" stroke-linejoin="round" stroke-width="1.8242"/>
   </g>
   <g fill="currentColor" stroke-width="1.0863">
      <path d="m137.48 22.39q0.85915 0 1.8284 0.29867 0.96928 0.29867 1.6302 0.29867h1.6962v0.74668h-1.8284q0.41855 0.80268 0.41855 1.5494 0 0.82135-0.39652 1.4374-0.3745 0.59734-0.94726 0.89602-0.57276 0.29867-1.1014 0.44801-0.52871 0.13067-0.99132 0.13067-0.59479 0-1.2557-0.09333-0.44058 0.112-0.88116 0.50401-0.44059 0.39201-0.44059 0.67201 0 0.44801 1.7183 0.50401l2.8418 0.09334q1.2336 0.03734 1.9386 0.59734 0.72696 0.54134 0.72696 1.4 0 1.344-1.8284 2.2587-1.8064 0.91468-3.8992 0.91468-1.5861 0-2.7096-0.54134-1.1014-0.52268-1.1014-1.2507 0-0.54134 0.48463-1.0454 0.48464-0.50401 1.6742-1.2507-0.66088-0.28-0.92523-0.48534-0.24232-0.224-0.24232-0.50401 0-0.18667 0.066-0.35467 0.0881-0.168 0.28638-0.37334 0.2203-0.20534 0.39653-0.35467 0.17624-0.14934 0.57276-0.44801 0.41855-0.29867 0.66087-0.50401-1.1014-0.46668-1.5861-1.0454-0.48464-0.57868-0.48464-1.456 0-1.2694 1.0794-2.1467 1.0794-0.89602 2.5994-0.89602zm-1.9826 8.6055q-0.6829 0.74668-0.88116 1.008-0.17624 0.28-0.17624 0.61601 0 0.61601 0.88117 0.98935 0.90319 0.37334 2.3571 0.37334 1.8504 0 2.996-0.50401 1.1675-0.50401 1.1675-1.3067 0-0.50401-0.63885-0.70934-0.61682-0.20534-2.1148-0.20534-2.269 0-3.5908-0.26134zm0.13218-6.2721q0 1.344 0.61681 2.184 0.61682 0.82135 1.6081 0.82135 0.77103 0 1.2336-0.44801 0.46261-0.46667 0.46261-1.2507 0-1.288-0.66087-2.2027-0.66088-0.91468-1.6302-0.91468-0.66088 0-1.1455 0.39201-0.48464 0.39201-0.48464 1.4187z"/>
      <path d="m38.437 24.276h6.6969v-3.6401q0-0.98935-0.35247-1.2694-0.33044-0.29867-1.6302-0.39201v-0.35467h6.1461v0.35467q-1.2777 0.09333-1.6081 0.39201-0.33044 0.28-0.33044 1.2694v8.3255q0 0.97068 0.35247 1.2694 0.35247 0.29867 1.5861 0.39201v0.35467h-6.1461v-0.35467q1.2997-0.056 1.6302-0.37334 0.35247-0.336 0.35247-1.512v-3.6401h-6.6969v3.8641q0 0.97068 0.35247 1.2694 0.35247 0.29867 1.5861 0.39201v0.35467h-6.1241v-0.35467q1.2777-0.056 1.6081-0.37334 0.33044-0.336 0.33044-1.512v-8.1015q0-0.98935-0.33044-1.2694-0.33044-0.29867-1.6081-0.39201v-0.35467h6.1241v0.35467q-1.2777 0.09333-1.6081 0.39201-0.33044 0.28-0.33044 1.2694z"/>
      <path d="m50.244 26.982q0-2.2027 1.3658-3.3974 1.3878-1.1947 3.2383-1.1947 1.8064 0 2.8197 1.064 0.41855 0.44801 0.61682 0.95202 0.19826 0.48534 0.35247 1.4h-6.807q0.08811 1.624 0.61682 2.464 0.9032 1.6054 2.8197 1.6054 1.0354 0 1.8284-0.44801 0.79305-0.44801 1.6081-1.512l0.30841 0.13067q-1.3878 3.1174-4.6482 3.1174-1.8945 0-3.018-1.12-1.1015-1.1387-1.1015-3.0614zm1.6522-1.7734h4.4719q-0.22029-1.2134-0.6829-1.6614-0.46261-0.46668-1.476-0.46668-1.9826 0-2.3131 2.128z"/>
      <path d="m62.801 18.265v5.7121q0.35247-0.67201 1.2116-1.12 0.85914-0.46667 1.8504-0.46667 1.6742 0 2.7977 1.176 1.1235 1.1574 1.1235 2.8747 0 1.9974-1.498 3.3601t-3.6789 1.3627q-1.3217 0-2.4893-0.37334-1.1455-0.39201-1.1455-0.82135v-9.6882q0-0.57868-0.22029-0.76534-0.19826-0.18667-0.83711-0.18667-0.26435 0-0.39652 0.01867v-0.29867l0.63884-0.14934q1.9386-0.48534 2.5554-0.67201zm0 6.7014v4.7041q0 0.35467 0.63885 0.63468 0.66087 0.26134 1.52 0.26134 1.3658 0 2.0928-0.85868 0.74899-0.85868 0.74899-2.4267 0-1.6987-0.77102-2.7067-0.74899-1.008-2.0267-1.008-0.83711 0-1.52 0.42934-0.6829 0.42934-0.6829 0.97068z"/>
      <path d="m76.965 24.22q-0.35247 0-0.81508-0.31734-0.44058-0.33601-0.63885-0.33601-0.44058 0-0.99131 0.54134t-0.55073 0.98935v4.2187q0 0.76534 0.3745 1.064 0.3745 0.28001 1.498 0.31734v0.28h-5.309v-0.28q1.0574-0.14934 1.3217-0.35467 0.26435-0.224 0.26435-0.91468v-4.6854q0-0.61601-0.17623-0.85868-0.1542-0.26134-0.57276-0.26134-0.35247 0-0.77102 0.07466v-0.29867q1.8725-0.50401 3.2603-1.008l0.11015 0.03734v1.7174q0.81508-0.98935 1.3878-1.3627 0.57276-0.39201 1.2557-0.39201 0.55073 0 0.88117 0.28 0.33044 0.26134 0.33044 0.70934 0 0.39201-0.24232 0.61601t-0.61682 0.224z"/>
      <path d="m78.111 26.982q0-2.2027 1.3658-3.3974 1.3878-1.1947 3.2383-1.1947 1.8064 0 2.8197 1.064 0.41855 0.44801 0.61682 0.95202 0.19826 0.48534 0.35247 1.4h-6.807q0.08811 1.624 0.61682 2.464 0.9032 1.6054 2.8197 1.6054 1.0354 0 1.8284-0.44801 0.79305-0.44801 1.6081-1.512l0.30841 0.13067q-1.3878 3.1174-4.6482 3.1174-1.8945 0-3.018-1.12-1.1015-1.1387-1.1015-3.0614zm1.6522-1.7734h4.4719q-0.22029-1.2134-0.6829-1.6614-0.46261-0.46668-1.476-0.46668-1.9826 0-2.3131 2.128z"/>
      <path d="m94.17 25.172q-0.63885-1.512-0.96928-1.8854-0.30841-0.37334-1.0133-0.42934v-0.28h4.4499v0.28q-0.77102 0.09334-1.0133 0.24267-0.24232 0.13067-0.24232 0.44801 0 0.20534 0.35247 1.0827l1.8725 4.1814 1.9826-4.1441q0.3745-0.78401 0.3745-1.232 0-0.224-0.22029-0.35467-0.19826-0.13067-0.74899-0.224v-0.28h2.7096v0.28q-0.33044 0.09334-0.46261 0.26134-0.13218 0.14934-0.44059 0.74668l-3.018 6.4588q-0.48464 0.93335-0.61682 0.93335-0.11015 0-0.19826-0.112-0.06609-0.112-0.35247-0.70934l-2.0047-4.4054-2.4452 4.4801q-0.44058 0.74668-0.59479 0.74668t-0.55073-0.82135l-2.9519-6.4028q-0.33044-0.70934-0.57276-0.93335-0.22029-0.224-0.61682-0.24267v-0.28h3.9652v0.28q-0.57276 0.056-0.79305 0.20534-0.22029 0.13067-0.22029 0.42934 0 0.26134 0.13218 0.54134l2.2029 4.8721z"/>
      <path d="m114.94 24.276h6.6969v-3.6401q0-0.98935-0.35246-1.2694-0.33044-0.29867-1.6302-0.39201v-0.35467h6.1461v0.35467q-1.2777 0.09333-1.6081 0.39201-0.33044 0.28-0.33044 1.2694v8.3255q0 0.97068 0.35247 1.2694 0.35246 0.29867 1.5861 0.39201v0.35467h-6.1461v-0.35467q1.2997-0.056 1.6302-0.37334 0.35246-0.336 0.35246-1.512v-3.6401h-6.6969v3.8641q0 0.97068 0.35246 1.2694 0.35247 0.29867 1.5861 0.39201v0.35467h-6.1241v-0.35467q1.2777-0.056 1.6081-0.37334 0.33044-0.336 0.33044-1.512v-8.1015q0-0.98935-0.33044-1.2694-0.33043-0.29867-1.6081-0.39201v-0.35467h6.1241v0.35467q-1.2777 0.09333-1.6081 0.39201-0.33043 0.28-0.33043 1.2694z"/>
      <path d="m127.57 23.622q-0.33044 0-0.9032 0.07466v-0.29867l3.3705-1.008 0.11015 0.056v6.6081q0 1.0267 0.26434 1.288 0.26436 0.26134 1.3658 0.35467v0.28h-5.2209v-0.28q1.1455-0.056 1.4319-0.336 0.30841-0.28 0.30841-1.3067v-4.3121q0-0.61601-0.17623-0.85868-0.15421-0.26134-0.55073-0.26134zm1.4319-5.3948q0.48465 0 0.81508 0.28 0.35247 0.26134 0.35247 0.65334 0 0.41067-0.33044 0.69068-0.33043 0.26134-0.83711 0.26134-0.46261 0-0.77102-0.26134-0.30841-0.28-0.30841-0.69068 0-0.39201 0.30841-0.65334 0.33044-0.28 0.77102-0.28z"/>
      <path d="m146.73 24.574v4.4801q0 0.97068 0.26436 1.2694 0.28638 0.29867 1.2557 0.37334v0.28h-4.7803v-0.28q0.94724-0.112 1.1675-0.37334 0.24232-0.28 0.24232-1.2694v-8.7735q0-0.61601-0.22029-0.78401-0.19827-0.168-0.9032-0.168-0.1542 0-0.26434 0.01867v-0.29867l0.59477-0.14934q2.3571-0.61601 2.5334-0.67201l0.11014 0.056v5.6748q0.77102-0.85868 1.52-1.2134 0.74899-0.35467 1.7403-0.35467 2.7096 0 2.7096 2.9494v3.7147q0 0.97068 0.22028 1.2507 0.2203 0.26134 1.1015 0.39201v0.28h-4.6922v-0.28q0.94725-0.07466 1.2116-0.37334 0.28638-0.29867 0.28638-1.2694v-3.6774q0-1.9787-1.6522-1.9787-1.2116 0-2.4452 1.176z"/>
      <path d="m167.73 18.34q0.85913 0 1.9826 0.336 1.1235 0.31734 1.2997 0.31734 0.57275 0 0.70493-0.65334h0.46261l0.48464 3.9947h-0.55072q-0.46262-1.4374-1.3218-2.184-1.1675-1.0454-2.7096-1.0454-1.0133 0-1.6522 0.48534-0.63884 0.48534-0.63884 1.2694 0 0.76534 0.74899 1.4187 0.77102 0.65334 1.8504 1.176 1.0794 0.50401 2.1588 1.064 1.0794 0.56001 1.8284 1.4187 0.77102 0.84001 0.77102 1.904 0 1.456-1.2997 2.4454-1.2997 0.97068-3.1942 0.97068-1.0354 0-2.247-0.33601-1.1896-0.336-1.3878-0.336-0.24232 0-0.41855 0.18667-0.17624 0.18667-0.19827 0.44801h-0.48463l-0.66088-3.9574h0.48464q0.85914 1.6987 1.9386 2.5014 1.0794 0.80268 2.5333 0.80268 1.2116 0 1.9606-0.57868 0.74899-0.57868 0.74899-1.5307 0-0.33601-0.0881-0.57868-0.066-0.24267-0.37449-0.67201-0.30841-0.42934-1.1015-0.93335-0.77101-0.52268-2.0267-1.1014-1.8284-0.82135-2.6435-1.6614-0.81507-0.84002-0.81507-1.96 0-1.4934 1.2116-2.352 1.2336-0.85868 2.6435-0.85868z"/>
      <path d="m175.11 27.02q0-1.176 0.46262-2.0907 0.48463-0.93335 1.2116-1.456 0.749-0.54134 1.5641-0.80268 0.81507-0.28 1.6081-0.28 1.3658 0 2.3571 0.57868 1.0133 0.56001 1.0133 1.344 0 0.31734-0.30841 0.56001-0.30841 0.224-0.74899 0.224-0.33044 0-0.61682-0.224-0.28638-0.24267-0.41856-0.61601l-0.13217-0.44801q-0.17623-0.50401-0.44058-0.69068t-0.83711-0.18667q-1.3438 0-2.1809 0.91468-0.81509 0.89602-0.81509 2.352 0 1.6054 0.94726 2.6134 0.94725 1.008 2.4232 1.008 0.94726 0 1.6302-0.39201 0.70493-0.39201 1.498-1.3814l0.30841 0.20534q-0.35247 0.57868-0.59479 0.87735-0.2203 0.29867-0.79306 0.87735-0.55072 0.57868-1.2997 0.87735-0.749 0.28-1.6522 0.28-1.8284 0-3.018-1.1574-1.1676-1.176-1.1676-2.9867z"/>
      <path d="m187.29 24.574v4.4801q0 0.97068 0.26435 1.2694 0.28638 0.29867 1.2557 0.37334v0.28h-4.7803v-0.28q0.94726-0.112 1.1676-0.37334 0.24233-0.28 0.24233-1.2694v-8.7735q0-0.61601-0.2203-0.78401-0.19826-0.168-0.9032-0.168-0.1542 0-0.26435 0.01867v-0.29867l0.59479-0.14934q2.3571-0.61601 2.5334-0.67201l0.11014 0.056v5.6748q0.77102-0.85868 1.52-1.2134 0.749-0.35467 1.7403-0.35467 2.7096 0 2.7096 2.9494v3.7147q0 0.97068 0.22029 1.2507 0.22029 0.26134 1.1014 0.39201v0.28h-4.6922v-0.28q0.94725-0.07466 1.2116-0.37334 0.28638-0.29867 0.28638-1.2694v-3.6774q0-1.9787-1.6522-1.9787-1.2116 0-2.4452 1.176z"/>
      <path d="m200.33 22.39q2.1148 0 3.4806 1.1947t1.3658 3.024q0 1.9227-1.4099 3.2481-1.4099 1.3067-3.4806 1.3067t-3.4586-1.2507q-1.3658-1.2694-1.3658-3.1547 0-1.9414 1.3438-3.1547 1.3658-1.2134 3.5247-1.2134zm-2.8858 3.4534q0 0.76534 0.1542 1.568 0.17624 0.78401 0.5287 1.5307 0.35247 0.74668 0.96929 1.232 0.63883 0.46667 1.476 0.46667 1.2116 0 1.8945-0.89602 0.70493-0.89601 0.70493-2.4827 0-1.904-0.88117-3.1174-0.85913-1.232-2.247-1.232-1.1675 0-1.8945 0.80268-0.70493 0.78401-0.70493 2.128z"/>
      <path d="m211.32 22.39q2.1148 0 3.4806 1.1947t1.3658 3.024q0 1.9227-1.4099 3.2481-1.4099 1.3067-3.4806 1.3067t-3.4586-1.2507q-1.3658-1.2694-1.3658-3.1547 0-1.9414 1.3438-3.1547 1.3658-1.2134 3.5247-1.2134zm-2.8858 3.4534q0 0.76534 0.1542 1.568 0.17624 0.78401 0.52871 1.5307 0.35246 0.74668 0.96928 1.232 0.63885 0.46667 1.476 0.46667 1.2116 0 1.8945-0.89602 0.70493-0.89601 0.70493-2.4827 0-1.904-0.88117-3.1174-0.85913-1.232-2.247-1.232-1.1676 0-1.8945 0.80268-0.70493 0.78401-0.70493 2.128z"/>
      <path d="m217.22 19.348v-0.29867q2.1589-0.44801 3.5247-0.82135l0.066 0.03734v11.163q0 0.74668 0.28638 0.98935 0.30841 0.224 1.3438 0.28v0.28h-5.1769v-0.28q1.0354-0.09333 1.3658-0.336 0.33044-0.26134 0.33044-0.98935v-8.9228q0-0.65334-0.19827-0.89601t-0.72696-0.24267q-0.15421 0-0.6829 0.03734z"/>
   </g>
   <g transform="translate(-.02988 3.1623)" stroke="#000">
      <g stroke-linecap="round" stroke-linejoin="round">
         <path d="m176.43 147.44 6.9858 0.38572-0.90029 7.3272 1.0638 0.12078-0.0636 1.1722-2.3591 2.3235 0.0766 2.2241-3.0703 7e-3 0.0547-2.2139-2.6293-2.3946-0.0677-1.0671 1.3824 0.0855z" stroke-width=".4958px"/>
         <path d="m174.94 145.61c1.8824 0.92753 3.4657 0.85508 5.8552 0.97971 1.6443 0.0857 4.0939 0.0923 3.1388-0.56787-0.95516-0.66018-6.7846-1.5506-8.994-0.41184z" color="#000000" stroke-width=".4958" style="-inkscape-stroke:none"/>
         <path d="m174.78 138.38 0.11523 5.318 8.7347 0.77004 0.67687-5.6109z" stroke-width=".4958px"/>
         <path d="m173.75 136.87c3.0767 0.8732 11.428 0.55537 11.587 0.23361-0.16208-0.48504-1.0534-0.55963-6.5096-0.92389 0 0-4.8672-0.3956-5.0775 0.69028z" color="#000000" stroke-width=".4958" style="-inkscape-stroke:none"/>
         <path d="m175.28 134.61 9.4798 0.37048-0.054-1.1462 0.37834-0.056-0.15779-2.0684 0.64614-0.14814 0.0444-3.3317 0.56108-0.50141-0.0381-1.944-12.023-0.21582 0.0279 1.7094 0.81259 0.12023z" stroke-width=".4958px"/>
         <path d="m179.87 122.82c-2.6098-0.20696-7.1127-0.17564-6.3786 0.80761 0.3152 0.42222 3.9378 0.79583 6.1416 0.83045 1.9684 0.031 5.2402 0.0547 7.0001-0.41115 0.13692 2e-3 0.24964-0.10711 0.25176-0.24402 2e-3 -0.13692-0.10711-0.24966-0.24402-0.25178-2.3622-0.6995-4.6174-0.56036-6.7708-0.73111z" color="#000000" stroke-width=".4958" style="-inkscape-stroke:none"/>
         <path d="m174.2 112.79-0.21114 8.3486 11.707 0.35208c0.20858-2.7936 0.46087-5.6484 0.59296-8.5322z" stroke-width=".4958px"/>
         <path d="m171.2 107.79 16.559 0.32459 4.6498-3.9223-9.1845-0.022-0.99361-0.4968-2.0134 0.0649-0.29761-1.091-4.1382 0.10052 0.20428 1.0239-3.7061 0.14891-0.0816-0.79803-1.7432-0.0321-0.0354 0.57742-0.87334 0.0233-0.35235-0.55584-1.3236 0.0317z" stroke-width=".4958px"/>
      </g>
      <g transform="matrix(.4958 0 0 .4958 -77.591 -126.32)">
         <path d="m506.13 456.59c-18.758-15.183-18.771-34.423 1.9908-52.138-18.402 31.822-8.9172 39.246-1.9908 52.138z" color="#000000" style="-inkscape-stroke:none"/>
         <g stroke-width="1px">
            <path d="m506.24 451.09c-2.0148-2.1943-5.9185-7.2102-6.616-13.268-0.69746-6.0574 1.8125-13.155 6.7881-20.988 4.9756-7.8331 12.416-16.401 16.199-20.476 3.783-4.0759 3.9076-3.6612 5.1118-1.8024 1.2042 1.8588 3.4875 5.1616 4.333 8.6473 0.84549 3.4857 0.25403 7.1541-1.3263 10.49-1.5803 3.336-4.1494 6.3399-7.9623 9.8816-3.8129 3.5418-8.8694 7.6212-11.453 12.454-2.584 4.8328-2.6951 10.417-2.814 13.523s-0.2456 3.7329-2.2604 1.5386z"/>
            <path d="m531.22 421.3c1.1691 2.4122 3.4395 5.9129 5.0622 9.9997 1.6227 4.0868 2.5981 8.7596 2.269 12.96s-1.9622 7.9295-4.0685 10.653c-2.1063 2.7235-4.6859 4.442-8.2084 4.4583-3.5225 0.0163-7.9885-1.6702-10.854-3.5875-2.8658-1.9172-4.1308-4.0658-4.3709-6.7528-0.24013-2.687 0.54544-5.9119 2.2692-9.0035 1.7237-3.0916 4.3854-6.049 7.0539-8.5022s5.3434-4.402 6.9352-6.8651c1.5918-2.4631 2.1006-5.441 2.3886-6.2683 0.28804-0.82727 0.35503 0.4961 1.5241 2.9082z"/>
            <path d="m533.69 456.11c3.7552-2.262 9.3276-6.4238 11.727-11.654 2.3997-5.2303 1.6265-11.53-1.023-16.72-2.6495-5.1899-7.1762-9.2698-9.6034-11.471-2.4273-2.2014-2.755-2.5242-1.9758-1.2334 0.77918 1.2908 2.6654 4.1948 4.3704 7.1761s3.2286 6.0395 4.329 9.0943c1.1003 3.0548 1.7775 6.1058 0.33443 10.485-1.443 4.3794-5.0057 10.088-7.9906 13.194-2.9849 3.1062-5.3927 3.6106-5.6273 3.6817-0.23464 0.0711 1.7039-0.29088 5.4591-2.5528z"/>
         </g>
      </g>
      <path d="m179.81 109.42c-3.1132-0.24357-8.4845-0.20671-7.6089 0.95052 0.37599 0.49693 4.6973 0.93664 7.3262 0.9774 2.3481 0.0364 6.251 0.0644 8.3502-0.4839 0.16333 2e-3 0.2978-0.12606 0.30034-0.28721 2e-3 -0.16115-0.12777-0.29382-0.2911-0.29633-2.8179-0.82328-5.508-0.65952-8.0768-0.86048z" color="#000000" stroke-linecap="round" stroke-linejoin="round" stroke-width=".58747" style="-inkscape-stroke:none"/>
   </g>
   <g transform="translate(-.02988 .039139)">
      <path d="m75.393 78.789c-0.86412-0.0544-1.656 0.28631-2.377 0.83594-0.72097 0.54967-1.4072 1.3379-2.0781 2.7363-0.67095 1.3985-1.3311 3.4003-1.8906 5.3223-0.55949 1.9219-1.0183 3.7632-1.3594 4.7578-0.34108 0.99449-0.57214 1.1614-0.72852 1.623-0.15638 0.46162-0.19258 1.0499-0.03516 1.4844 0.07869 0.21723 0.15355 0.26851 0.23633 0.61914 0.08277 0.35063 0.16804 0.99822 0.20508 2.2715 0.07407 2.5466-0.03788 7.6024-0.06641 12.051-0.02853 4.4484 0.02587 8.2945-0.07031 10.305-0.04809 1.0051-0.13452 1.5532-0.21484 1.8867-0.08033 0.33354-0.15943 0.45994-0.21484 0.6875-0.11076 0.45486-0.03838 0.98605 0.13477 1.3613 0.0865 0.18749 0.14531 0.22672 0.2168 0.53711 0.07148 0.31038 0.1418 0.88379 0.17773 2.0039 0.07188 2.2403 0.0091 6.6735 0.16016 10.092 0.15103 3.4183 0.51712 5.8162 0.82227 7.8086 0.30515 1.9924 0.54211 3.5744 0.75 4.2754 0.05197 0.17521 0.10293 0.29709 0.16406 0.39453 0.06113 0.0974 0.14689 0.17198 0.2207 0.20898 0.04903 0.0246 0.049 0.0194 0.05859 0.0215 0.0232 0.0616 0.07801 0.34177 0.1543 0.67968 0.07737 0.34274 0.18994 0.76137 0.38281 1.1797 0.38572 0.83659 1.0532 1.6004 1.4883 2.0332 0.37212 0.3702 0.56666 0.45792 0.74219 0.54297l0.41992 1.4707a0.26354 0.26354 0 0 0 0.50391 0.0117l0.50586-1.4883c0.43456-0.3697 0.9077-0.77764 1.584-2.0195 0.70565-1.2958 1.6432-3.4634 2.2168-5.1699 0.57355-1.7065 0.77336-2.9298 1.2012-4.8828 0.42782-1.953 1.091-4.6748 1.6758-8.9219 0.58476-4.2472 1.091-10.016 1.3398-15.389 0.24884-5.3728 0.23904-10.345 0.16602-15.533-0.07302-5.1882-0.2105-10.599-0.19141-13.182 0.0061-0.82733 0.0301-1.3626 0.06641-1.6641a0.26354 0.26354 0 0 0-0.0059-0.0957c-0.03093-0.1236-0.05841-0.25942-0.0957-0.40039-0.14476-0.54738-0.30348-1.0883-0.48633-1.6152-0.09157-0.26389-0.18934-0.52328-0.29297-0.7793-0.10385-0.25656-0.2158-0.50949-0.33398-0.75781-0.11809-0.24815-0.24289-0.49325-0.375-0.73242-0.13189-0.23878-0.27022-0.47237-0.41406-0.70312-0.28755-0.46127-0.59677-0.90651-0.91992-1.3418-0.32318-0.43532-0.66029-0.86034-1.0039-1.2793-0.09291-0.11329-0.18667-0.22155-0.27539-0.32812a0.26354 0.26354 0 0 0-0.03906-0.03906c-0.66074-0.52085-1.404-0.83349-2.125-0.87891zm-0.0332 0.52539c0.58639 0.03694 1.2336 0.30244 1.8203 0.76172 0.08375 0.09995 0.16566 0.19727 0.24414 0.29297 0.34009 0.41465 0.67192 0.83363 0.98828 1.2598 0.31638 0.42618 0.61801 0.85993 0.89648 1.3066 0.13916 0.22324 0.27315 0.44934 0.40039 0.67969 0.12701 0.22995 0.24786 0.46469 0.36133 0.70312 0.11339 0.23826 0.22013 0.48102 0.32031 0.72852 0.1004 0.24802 0.19462 0.49863 0.2832 0.75391 0.17748 0.51143 0.33247 1.0407 0.47461 1.5781 0.02897 0.10953 0.0553 0.2312 0.08594 0.35742-0.0389 0.34759-0.06049 0.85807-0.06641 1.6641-0.01927 2.6066 0.11844 8.0093 0.19141 13.193 0.07296 5.184 0.08015 10.143-0.16797 15.5-0.24812 5.3572-0.75242 11.118-1.334 15.342-0.58156 4.2239-1.2396 6.9166-1.6699 8.8809-0.43028 1.9642-0.62444 3.1586-1.1855 4.8281-0.5611 1.6695-1.4987 3.8355-2.1797 5.0859-0.68098 1.2505-1.0802 1.577-1.5293 1.957a0.26354 0.26354 0 0 0-0.08008 0.11719l-0.24609 0.71875-0.20898-0.73633a0.26354 0.26354 0 0 0-0.14648-0.16797c-0.18469-0.0828-0.30418-0.1266-0.70898-0.5293-0.40459-0.40246-1.0445-1.1452-1.3828-1.8789-0.16914-0.36683-0.27412-0.74849-0.34766-1.0742-0.07353-0.32573-0.10135-0.57252-0.18164-0.77149-0.04019-0.0996-0.11958-0.19539-0.19922-0.24023-0.07964-0.0448-0.11218-0.0463-0.10938-0.0449 0.0028 1e-3 0.01187 0.0149-0.0098-0.0195-0.02164-0.0345-0.06161-0.1158-0.10547-0.26368-0.17541-0.59143-0.42925-2.2129-0.73438-4.2051-0.30512-1.9922-0.66655-4.3602-0.81641-7.752-0.14986-3.3917-0.08725-7.8137-0.16016-10.086-0.03645-1.1361-0.10574-1.7335-0.19141-2.1055-0.08567-0.37196-0.1995-0.52497-0.25195-0.63867-0.10477-0.22709-0.17114-0.72986-0.10156-1.0156 0.03476-0.14277 0.12574-0.31135 0.2168-0.68945 0.09106-0.37811 0.17749-0.95871 0.22656-1.9844 0.09815-2.0513 0.04378-5.884 0.07227-10.326 0.02849-4.4421 0.13956-9.4883 0.06445-12.07-0.03755-1.2911-0.11966-1.9655-0.2168-2.377-0.09714-0.41146-0.21472-0.56221-0.25586-0.67578-0.08228-0.22711-0.07249-0.80938 0.03906-1.1387 0.11155-0.3293 0.37-0.5738 0.72852-1.6191 0.35849-1.0452 0.81142-2.8741 1.3672-4.7832 0.55575-1.9091 1.2152-3.8976 1.8594-5.2402 0.6442-1.3427 1.266-2.0454 1.9238-2.5469 0.65786-0.50154 1.3157-0.77308 2.0234-0.72852z" color="#000000" stroke="#000" stroke-linecap="round" stroke-linejoin="round" stroke-width=".4"/>
      <path d="m77.354 79.876c0.09086 0.10914 0.18383 0.2166 0.27381 0.32631 0.34185 0.4168 0.67665 0.83846 0.99642 1.2692 0.31976 0.43073 0.62488 0.87079 0.90789 1.3248 0.1415 0.227 0.27703 0.45717 0.4066 0.69173 0.12956 0.23456 0.25272 0.47417 0.3685 0.71746 0.11579 0.24329 0.22429 0.49117 0.32631 0.7432 0.10202 0.25202 0.19813 0.50728 0.28822 0.76687 0.18016 0.51917 0.33829 1.0531 0.48174 1.5955 0.03452 0.13061 0.06176 0.2657 0.0947 0.39733 0.08278-0.68698 0.2406-0.39218 0.48174 0.2244 0.35483 0.90728 0.8889 2.5058 1.1889 3.9002 0.30001 1.3944 0.3663 2.5847 0.43233 3.7757l0.49615 0.20484-0.1369 4.136-0.62688 0.34689c-0.13695 1.3826-0.27401 2.7652-0.18837 3.6532 0.08564 0.88797 0.39329 1.2814 0.78231 0.47144 0.38902-0.80994 0.85974-2.8234 1.1899-5.0377 0.33019-2.2142 0.51964-4.6297-0.02266-7.4237-0.54228-2.794-1.8167-5.9659-2.8596-7.5534s-1.8542-1.5895-2.5456-2.0742c-0.69141-0.48465-1.262-1.4526-1.9712-2.139-0.1176-0.11382-0.24009-0.21906-0.36439-0.31704z" stroke="#000" stroke-width=".2"/>
      <path d="m81.604 113.72c-0.06911 0.0113-0.13096 0.0493-0.1719 0.10598-2.7758 3.4837-9.8909 0.74064-10.768 0.69145-0.77517-0.0434-1.7503 1.9036 3.4463 2.4549 1.7328 0.18382 4.5911 0.13511 5.9201-0.36078 2.4198-0.90284 1.3297-1.7043 1.6922-2.3703 0.06943-0.12758 0.06686-0.23006-0.05065-0.31545-0.05664-0.0413 0.0011-0.21686-0.06819-0.20586z" color="#000000" style="-inkscape-stroke:none"/>
      <path d="m70.605 118.52c-0.04085-1e-3 -0.0794-4e-4 -0.11632 1e-3 -0.44299 0.017-0.60748 0.22923-0.68246 1.5543-0.09997 1.7668-0.04164 5.5116-0.04322 8.3635-0.0016 2.8519-0.06321 4.8109-0.41278 5.5956-0.31433 0.70561-0.86352 0.45589-1.4349 0.11636 0.01286 1.0602 0.03499 2.0968 0.07103 3.0953l0.04321 0.52806c0.0088 4e-3 0.01803 6e-3 0.02678 0.01 0.09108 0.0395 0.18094 0.0832 0.26764 0.13176 0.08669 0.0486 0.17113 0.10247 0.25219 0.16264 0.08106 0.0602 0.15848 0.1273 0.23264 0.20176 0.07416 0.0744 0.14501 0.15682 0.21102 0.24806 0.06601 0.0912 0.12766 0.19097 0.18426 0.30162 0.05659 0.1106 0.10804 0.23152 0.1544 0.36027 0.04638 0.12874 0.08678 0.26595 0.12249 0.40762 0.03573 0.14167 0.06595 0.28804 0.09058 0.43748 0.02461 0.14944 0.04454 0.30191 0.05765 0.45394 0.01313 0.15204 0.02044 0.30344 0.02161 0.45292 0.0011 0.14947-0.0043 0.29675-0.01544 0.4385-0.01126 0.14175-0.02846 0.27877-0.0525 0.40763-0.02403 0.12886-0.05434 0.24947-0.09161 0.36027-0.03726 0.11085-0.08185 0.21116-0.13176 0.30263-0.04991 0.0915-0.1059 0.17438-0.16675 0.2491-0.06086 0.0747-0.12649 0.14121-0.19661 0.20176-0.07013 0.0606-0.14464 0.11473-0.22234 0.16367-0.0777 0.0489-0.1583 0.0928-0.2419 0.13278-0.01765 9e-3 -0.03668 0.0145-0.05456 0.0226 0.11509 0.87615 0.23405 1.6956 0.3469 2.4324 0.14814 0.96724 0.28051 1.8305 0.40145 2.5487 0.40161-0.65532 0.8001-1.1546 1.1848-0.83583 0.48024 0.39791 0.93837 2.0614 1.3001 2.734 0.36172 0.67259 0.62761 0.35503 0.83893-0.77201 0.21132-1.127 0.36819-3.064 0.51364-6.068 0.14546-3.0041 0.27981-7.0763 0.4138-11.148l-0.47659-1.0973c8e-3 -0.52908 0.01596-1.0573 0.0628-2.2368 0.0468-1.1795 0.13179-3.0084 0.43645-4.8822 0.30464-1.8738 0.82829-3.7907 0.35204-4.6589-0.47625-0.86812-1.9532-0.68699-2.8204-0.70202-0.1626-2e-3 -0.30363-0.013-0.42616-0.0154z"/>
      <path d="m67.701 100.21c0.11202-9e-3 0.22182-0.0225 0.34072-0.0185 0.09196 3e-3 0.18422 0.0134 0.27587 0.0329 0.09165 0.0195 0.18223 0.0483 0.26969 0.0916 0.08747 0.0433 0.17177 0.10054 0.25117 0.17499 0.0794 0.0744 0.15385 0.16603 0.22131 0.27896 0.06746 0.11291 0.12848 0.24682 0.18014 0.40556 0.05165 0.15874 0.09464 0.34291 0.12661 0.55483 0.06395 0.42381 0.10301 0.9567 0.13691 1.5451 0.03389 0.58836 0.06246 1.2316 0.10396 1.8745 0.02077 0.32143 0.04438 0.64287 0.07412 0.95729 0.02973 0.31443 0.0647 0.62247 0.10807 0.91613 0.04338 0.29367 0.09573 0.5736 0.15749 0.83275 0.06177 0.25915 0.13337 0.49732 0.21822 0.7082 0.08485 0.21088 0.18292 0.39453 0.29028 0.55379 0.10736 0.15927 0.22388 0.29398 0.34792 0.40866 0.12404 0.11473 0.25524 0.20902 0.39013 0.28616 0.13488 0.0772 0.27391 0.13762 0.4138 0.18425 0.13989 0.0467 0.28091 0.0798 0.41998 0.10297 0.13907 0.0231 0.27623 0.0355 0.40865 0.0422 0.26484 0.0135 0.5101 1e-3 0.71334-9e-3 0.81299-0.0399 0.94627-0.0427 1.0798-0.0453l0.22749-24.234c0.21162-0.18273 0.42317-0.36527 0.5857-0.53836 0.08126-0.08654 0.15015-0.17065 0.20072-0.25116 0.0506-0.08051 0.08296-0.15748 0.09058-0.22954 0.0076-0.07207-0.01001-0.13965-0.04322-0.20999-0.0333-0.07034-0.08229-0.1431-0.13999-0.22749-0.0577-0.08439-0.12381-0.18021-0.1894-0.2944-0.06559-0.11419-0.1314-0.24683-0.18837-0.40659-0.11394-0.31952-0.19334-0.74678-0.30881-1.0952-0.02888-0.08712-0.06032-0.16846-0.0947-0.24292-0.03436-0.07447-0.0722-0.14159-0.11426-0.19764-0.04205-0.05605-0.08809-0.10197-0.13999-0.13382-0.05191-0.03183-0.10903-0.04959-0.17294-0.05148-0.06391-0.0021-0.13517 0.01214-0.21102 0.04322-0.07584 0.03114-0.15642 0.07979-0.2419 0.14411-0.08548 0.06433-0.17587 0.14519-0.26866 0.24293-0.0928 0.09774-0.18836 0.21143-0.28616 0.34278-0.0978 0.13135-0.19697 0.27952-0.29748 0.44468-0.1005 0.16516-0.20276 0.3474-0.30366 0.54659-0.1009 0.19918-0.20056 0.41611-0.29954 0.64952-0.09899 0.23341-0.19655 0.48359-0.29131 0.75143-0.18953 0.53569-0.36874 1.1405-0.53732 1.7612-0.16858 0.62076-0.32675 1.2571-0.47556 1.857-0.14881 0.59982-0.28771 1.1628-0.41792 1.6356-0.06511 0.23644-0.12873 0.45028-0.1894 0.63511-0.06067 0.18483-0.1186 0.34118-0.17499 0.46115-0.05639 0.11997-0.11613 0.19734-0.17705 0.23881-0.03047 0.02071-0.06141 0.03262-0.09264 0.03605-0.03125 0.0031-0.06191-0.0021-0.09367-0.01439-0.06353-0.02482-0.12821-0.07962-0.19249-0.15852-0.06427-0.07888-0.12833-0.18187-0.19146-0.30263-0.06312-0.12076-0.12521-0.25927-0.18528-0.40968-0.06008-0.15041-0.11882-0.31183-0.17396-0.47968-0.05143-0.15656-0.08827-0.31718-0.13381-0.47865-0.27348 0.99808-0.51641 1.8803-0.71952 2.4725-0.3498 1.0199-0.59482 1.2247-0.72878 1.6202-0.13396 0.39546-0.15692 0.9806-0.03705 1.3114 0.11984 0.33081 0.38244 0.40741 0.45703 2.9718 0.01549 0.53242 0.02082 1.1923 0.02266 1.9115z"/>
   </g>
   <g fill="none" stroke="#000" stroke-linecap="round" stroke-linejoin="round">
      <path d="m130.74 216s0.51572 2.4557 9.1816 1.793c7.151 0.12225 22.764 0.58495 30.625 0.66015 6.4372 0.21505 5.9641-1.4092 3.9922-6.2461l-7.1094-18.604c-2.0947-6.6825-3.8968-10.764-9.8184-10.174l-20.688-0.20898c-5.0698-0.56553-5.899 1.6485-6.334 1.7148" stroke-width="1.6"/>
      <path d="m129.69 216s-0.51572 2.4557-9.1816 1.793c-7.151 0.12225-22.764 0.58495-30.625 0.66015-6.4372 0.21505-5.9641-1.4092-3.9922-6.2461l7.1094-18.604c2.0947-6.6825 3.8968-10.764 9.8184-10.174l20.688-0.20898c5.0698-0.56553 5.899 1.6485 6.334 1.7148" stroke-width="1.6"/>
      <g stroke-width="1px">
         <path d="m96.576 206.04 4.6678-15.33c1.8468-3.9262 3.6549-4.1934 8.0566-4.2768 4.4017-0.0834 11.396 0.0169 15.204 0.21238 6.1232-0.0113 5.8249-2.0992 5.2929 5.4946l0.24238 20.279-10.323 0.27492-13.732-0.67197c-4.288 0.1464-7.9989 0.46545-9.6239 0.15179-1.6249-0.31367-1.1627-1.2605-0.93666-1.7606 0.226-0.5001 0.0064-0.61155 1.1519-4.3736z" filter="url(#filter4181)"/>
         <path d="m165.51 206.1-4.6733-15.302c-1.8468-3.9262-3.6549-4.1934-8.0566-4.2768l-15.573-0.11208c-4.319-0.17659-7.8523-2.0087-7.242 4.6847l0.36428 20.351c1.8633 4.3591 4.3007 1.1355 11.448 1.6436l14.318-0.9779 9.6239 0.15179c1.6249-0.31367 1.1626-1.2605 0.93666-1.7606-0.22598-0.50013-0.21526-0.55415-0.20978-0.58177 5e-3 -0.0276 0.2045-0.0828-0.93665-3.8194z" filter="url(#filter4304)"/>
         <path d="m100.78 187.51c-2.0917 5.6388-4.1832 11.277-5.318 15.79s-1.3137 5.3882-1.7337 6.9153-1.0823 3.7061 3.3215 3.6297c4.4037-0.0765 20.881 0.4495 30.351 0.6298" filter="url(#filter4134)"/>
         <path d="m127.72 216.04-37.16 0.0352-1.3185-2.4461 9.8675-29.039 2.9409 0.13224 23.606 0.18075" filter="url(#filter4087)"/>
         <path d="m133.95 184.54 25.756 1.1382 1.5629 0.43241 8.5039 27.053-1.1289 1.0902-38.536 0.86578" filter="url(#filter4332)"/>
         <path d="m133.89 216.48 38.202 0.34107-0.3241-3.0778-8.7527-27.621" filter="url(#filter4360)"/>
      </g>
   </g>
</svg>
