<?xml version="1.0" encoding="UTF-8" standalone="no"?>
<svg
   id="SVGRoot"
   version="1.1"
   viewBox="0 0 256 256"
   sodipodi:docname="hhs.svg"
   inkscape:version="1.1.1 (3bf5ae0d25, 2021-09-20)"
   xmlns:inkscape="http://www.inkscape.org/namespaces/inkscape"
   xmlns:sodipodi="http://sodipodi.sourceforge.net/DTD/sodipodi-0.dtd"
   xmlns:xlink="http://www.w3.org/1999/xlink"
   xmlns="http://www.w3.org/2000/svg"
   xmlns:svg="http://www.w3.org/2000/svg">
  <defs
     id="defs163" />
  <sodipodi:namedview
     id="namedview161"
     pagecolor="#ffffff"
     bordercolor="#666666"
     borderopacity="1.0"
     inkscape:pageshadow="2"
     inkscape:pageopacity="0.0"
     inkscape:pagecheckerboard="0"
     showgrid="false"
     inkscape:zoom="0.9453125"
     inkscape:cx="222.67769"
     inkscape:cy="143.33884"
     inkscape:window-width="1314"
     inkscape:window-height="704"
     inkscape:window-x="52"
     inkscape:window-y="27"
     inkscape:window-maximized="1"
     inkscape:current-layer="g1259" />
  <g
     id="g1259">
    <g
       id="g7554">
      <path
         d="m 109.68,164.65 7e-4,-1.2e-4 c -1.96777,0.0752 -2.17612,-0.0946 -2.4969,0.21443 -0.3208,0.309 -0.2484,0.6113 -1.3895,4.3941 -1.1411,3.783 -3.63139,11.245 -3.8228,14.743 -0.1914,3.49805 1.9136,3.03207 3.716,2.7407 1.8024,-0.29136 3.2965,-0.40733 4.9413,-0.52084 1.6448,-0.11352 3.4362,-0.22432 6.5428,-0.13522 3.1061,0.0891 7.5273,0.37792 10.703,0.56021 3.1758,0.1823 5.104,0.25794 8.4906,0.1015 3.3866,-0.15644 8.2212,-0.54431 11.815,-0.63321 3.5938,-0.0889 5.9427,0.12158 7.6499,0.36363 1.7072,0.24205 2.77078,0.51521 3.727,0.63797 0.9562,0.1228 1.80366,0.0953 1.278,-2.8351 -0.5257,-2.9301 -2.4223,-8.7577 -3.4295,-12.559 -1.0072,-3.8013 -0.8691,-6.21212 -2.1744,-6.9815 -1.3053,-0.76938 -4.0538,0.10536 -6.6418,0.16416 -2.588,0.0588 -5.2659,-0.0499 -7.6666,-0.23814 -2.4008,-0.18824 -4.5246,-0.45595 -6.1944,-0.0865 -1.6698,0.3694 -2.885,1.3763 -4.1103,1.3983 -1.2253,0.022 -2.4611,-0.94153 -3.8437,-1.481 -1.3826,-0.53972 -2.9119,-0.65339 -4.3452,-0.52972 -1.4333,0.12367 -2.7699,0.48542 -5.1072,0.60635 -2.3373,0.1209 -5.6742,8e-4 -7.642,0.076 z"
         stroke-width="1.027"
         id="path2"
         style="fill:none;stroke:#000000" />
      <path
         d="m 130.93472,186.605 c 0.0584,-7.538 0.11688,-15.0763 0.17528,-22.615"
         stroke-width="1.227"
         id="path4"
         style="fill:none;stroke:#000000;stroke-linecap:round;stroke-linejoin:round" />
      <path
         d="m 130.6813,187.95509 c -9.699,0.008 -19.3899,0.0162 -25.101,0.23091 -6.94703,-0.1513 -7.8375,0.296 -6.6304,-3.089 0.9399,-4.033 3.3194,-11.5097 6.2301,-19.337"
         id="path6"
         style="fill:none;stroke:#000000;stroke-linecap:round;stroke-linejoin:round" />
      <path
         d="m 130.8401,190.0956 c 0.0133,-1.148 0.0266,-2.2966 0.0399,-3.4456"
         stroke-width="1.363"
         id="path8"
         style="fill:none;stroke:#000000;stroke-linecap:round;stroke-linejoin:round" />
      <path
         d="m 157.2957,164.90391 c 2.4068,7.477 4.8134,14.9531 5.9175,19.062 1.1041,4.10896 0.9061,4.8494 -1.4502,4.925 -2.3558,0.0756 -6.8663,-0.51356 -12.305,-0.75631 -5.439,-0.24275 -11.8031,-0.13868 -18.168,-0.0346"
         id="path10"
         style="fill:none;stroke:#000000;stroke-linecap:round;stroke-linejoin:round" />
      <path
         d="m 130.3054,189.60408 c -9.518,-0.10141 -19.0321,-0.20278 -25.371,0.28452 -6.3392,0.4839 -9.9329,-0.0916 -9.549,-2.2926 1.2073,-3.763 4.1384,-12.2938 7.7546,-20.906"
         id="path12"
         style="fill:none;stroke:#000000;stroke-linecap:round;stroke-linejoin:round" />
      <path
         d="m 159.3856,165.62893 c 2.8485,8.112 5.6967,16.22358 6.8442,20.479 1.1475,4.25542 0.5944,4.65468 -2.0088,4.5445 -2.603,-0.11018 -7.2563,-0.73016 -13.085,-0.99723 -5.828,-0.2671 -12.8319,-0.1811 -19.836,-0.0952"
         id="path14"
         style="fill:none;stroke:#000000;stroke-linecap:round;stroke-linejoin:round" />
      <path
         d="M 53.906,177.959 C 78.938,163.507 103.968,149.051 129,134.6"
         id="path16"
         style="fill:none;stroke:#000000;stroke-width:8.6531;stroke-linecap:round;stroke-linejoin:round" />
      <path
         d="M 129,134.602 V 55.253"
         id="path18"
         style="fill:none;stroke:#000000;stroke-width:8.6531;stroke-linecap:round;stroke-linejoin:round" />
      <path
         d="M 204.091,177.954 C 179.061,163.503 154.031,149.051 129,134.6"
         id="path20"
         style="fill:none;stroke:#000000;stroke-width:8.6531;stroke-linecap:round;stroke-linejoin:round" />
      <path
         d="m 220.26,47.689 -0.004,0.0028 c 0.25852,25.726 0.0414,51.463 0.11299,77.194 -0.5282,14.412 1.6074,29.179 -2.5778,43.202 -9.631,29.946 -41.072,47.6553 -71.156,49.81 -19.051,0.3779 -38.655,1.8181 -57.045,-4.2828 -26.193,-7.913 -50.2493,-30.283 -51.867,-58.836 -0.17273,-35.694 -0.18509,-71.4 0.0065,-107.09 z"
         stroke-width="1.5635"
         id="path26"
         style="fill:none;stroke:#000000;stroke-linecap:round" />
      <path
         d="m 213.38,55.252 0.004,-0.0011 v 66.398 c -0.4812,13.498 1.3564,27.255 -1.936,40.488 -8.195,28.525 -37.83,45.6929 -66.154,47.69 -16.405,0.3215 -33.19,1.5327 -49.19,-2.9309 -25.663,-6.591 -49.8021,-27.863 -51.386,-55.604 C 44.49032,119.283 44.68449,87.265 44.62,55.252 Z"
         stroke-width="8.6531"
         id="path28"
         style="fill:none;stroke:#000000;stroke-linecap:round" />
      <path
         id="rect30"
         style="fill:none;stroke:#000000;stroke-width:1.5785;stroke-linecap:round"
         d="M 35.868,10.441 V 41.427 H 222.12799 V 10.441 Z" />
      <path
         id="rect36"
         style="fill:none;stroke:currentColor;stroke-width:1.5785;stroke-linecap:round;stroke-linejoin:round"
         d="M 41.063999,14.246 V 37.623001 H 216.924 V 14.246 Z" />
      <path
         d="m 170.87,133.9 0.40929,6.89693 -1.1962,-0.074 0.0586,0.92335 2.2751,2.072 -0.0473,1.9157 2.6568,-0.006 -0.0663,-1.9245 2.0414,-2.0106 0.055,-1.0144 -0.92052,-0.10451 0.77903,-6.3402 z"
         stroke-width="0.42902px"
         id="path74"
         style="stroke:#000000;stroke-linecap:round;stroke-linejoin:round" />
      <path
         d="m 169.59,132.32 c 1.9119,-0.98543 6.95609,-0.21489 7.7826,0.35637 0.8265,0.57128 -1.2932,0.56558 -2.716,0.49138 -2.0678,-0.10784 -3.4377,-0.0452 -5.0666,-0.84775 z"
         color="#000000"
         stroke-width="0.42902"
         style="stroke:#000000;stroke-linecap:round;stroke-linejoin:round;-inkscape-stroke:none"
         id="path76" />
      <path
         d="m 169.45,126.07 8.2436,0.41292 -0.5857,4.8551 -7.5582,-0.66632 z"
         stroke-width="0.42902px"
         id="path78"
         style="stroke:#000000;stroke-linecap:round;stroke-linejoin:round" />
      <path
         d="m 168.56,124.75 h -4e-4 c 0.182,-0.93962 4.3936,-0.5973 4.3936,-0.5973 4.72126,0.31519 5.49255,0.37973 5.6328,0.79944 -0.137,0.27842 -7.3637,0.55344 -10.026,-0.20214 z"
         color="#000000"
         stroke-width="0.42902"
         style="stroke:#000000;stroke-linecap:round;stroke-linejoin:round;-inkscape-stroke:none"
         id="path80" />
      <path
         d="m 169.88,122.8 -0.2797,-6.24035 -0.70314,-0.10404 -0.0241,-1.4791 10.404,0.18675 0.033,1.6821 -0.48551,0.43387 -0.0384,2.883 -0.55911,0.12819 0.13654,1.7898 -0.32738,0.0485 0.0467,0.99186 z"
         stroke-width="0.42902px"
         id="path82"
         style="stroke:#000000;stroke-linecap:round;stroke-linejoin:round" />
      <path
         d="m 173.85,112.6 c 1.8633,0.14775 3.8147,0.0274 5.8588,0.63263 0.11845,0.002 0.21315,0.0994 0.21115,0.21787 -0.002,0.11845 -0.0994,0.21315 -0.21785,0.21115 -1.5228,0.40307 -4.3539,0.38257 -6.0572,0.35577 -1.907,-0.0299 -5.04165,-0.35324 -5.3144,-0.71859 -0.6351,-0.85081 3.2612,-0.87791 5.5195,-0.69883 z"
         color="#000000"
         stroke-width="0.42902"
         style="stroke:#000000;stroke-linecap:round;stroke-linejoin:round;-inkscape-stroke:none"
         id="path84" />
      <path
         d="m 168.95,103.92 10.4604,0.14575 c -0.1143,2.4954 -0.33261,4.9656 -0.5131,7.383 l -10.13,-0.30465 z"
         stroke-width="0.42902px"
         id="path86"
         style="stroke:#000000;stroke-linecap:round;stroke-linejoin:round" />
      <path
         d="m 166.35,99.595 -2.88182,-4.0002 1.1453,-0.02743 0.30489,0.48097 0.7557,-0.02016 0.0306,-0.49964 1.5084,0.02778 0.0706,0.69054 3.2069,-0.12885 -0.17677,-0.886 3.5808,-0.08698 0.25752,0.94408 1.7422,-0.05616 0.85978,0.42988 7.9474,0.01904 -4.0235,3.394 z"
         stroke-width="0.42902px"
         id="path88"
         style="stroke:#000000;stroke-linecap:round;stroke-linejoin:round" />
      <path
         d="m 168.20989,92.906242 c -2.97156,-5.530926 -7.04073,-8.715971 0.8541,-22.368245 -8.90723,7.600089 -8.90165,15.854434 -0.8541,22.368245 z"
         color="#000000"
         style="stroke:#000000;stroke-width:0.42902;-inkscape-stroke:none"
         id="path92" />
      <path
         d="m 168.25708,90.546632 -4e-5,4.3e-5 c 0.86439,0.941398 0.91876,0.672446 0.96976,-0.66009 0.051,-1.332537 0.0987,-3.72827 1.20726,-5.801638 1.10842,-2.073368 3.27776,-3.823512 4.91357,-5.343015 1.63581,-1.51946 2.738,-2.808193 3.41598,-4.239404 0.678,-1.431168 0.93174,-3.004985 0.56901,-4.50042 -0.36273,-1.495435 -1.34232,-2.912402 -1.85894,-3.709864 -0.51663,-0.797463 -0.57008,-0.975377 -2.19307,0.773265 -1.62298,1.748257 -4.81506,5.424057 -6.94969,8.784614 -2.13463,3.360513 -3.21146,6.405526 -2.91223,9.004271 0.29924,2.598918 1.97401,4.750839 2.83839,5.692238 z"
         id="path94"
         style="stroke:#000000;stroke-width:0.42902px" />
      <path
         d="m 178.974,77.766126 1.8e-4,-8.6e-5 c -0.50156,-1.034839 -0.5303,-1.602591 -0.65387,-1.247676 -0.12356,0.354928 -0.34185,1.632507 -1.02476,2.689226 -0.68291,1.056719 -1.8305,1.892794 -2.97534,2.945266 -1.14484,1.052471 -2.28676,2.321255 -3.02626,3.647613 -0.73953,1.326359 -1.07656,2.709905 -0.97354,3.862682 0.10301,1.152777 0.64572,2.074569 1.87521,2.897086 1.22935,0.82256 3.14536,1.546109 4.65658,1.539109 1.51122,-0.007 2.61792,-0.744263 3.52157,-1.912699 0.90364,-1.168436 1.60428,-2.768295 1.74547,-4.570351 0.14119,-1.802055 -0.27728,-3.80678 -0.97345,-5.560099 -0.69617,-1.753319 -1.67022,-3.255189 -2.17179,-4.290071 z"
         id="path96"
         style="stroke:#000000;stroke-width:0.42902px" />
      <path
         d="m 180.03368,92.700312 -7e-5,-4.3e-5 c -1.61106,0.970409 -2.44273,1.125703 -2.34206,1.095203 0.10065,-0.0305 1.13364,-0.246901 2.41422,-1.579523 1.28058,-1.332536 2.80905,-3.78164 3.42813,-5.66049 0.61911,-1.878765 0.32857,-3.187705 -0.14348,-4.498275 -0.47209,-1.31057 -1.12575,-2.622599 -1.85723,-3.901637 -0.73147,-1.279037 -1.5407,-2.524911 -1.87498,-3.07869 -0.3343,-0.553779 -0.19371,-0.415291 0.84765,0.529153 1.04132,0.944359 2.98337,2.694718 4.12005,4.921289 1.13669,2.226614 1.46841,4.929311 0.43889,7.173214 -1.02939,2.243861 -3.42006,4.029356 -5.03112,4.999799 z"
         id="path98"
         style="stroke:#000000;stroke-width:0.42902px" />
      <path
         d="m 173.8,101 h -1.1e-4 c 2.2228,0.17389 4.5506,0.0322 6.9889,0.74458 0.14133,0.002 0.25389,0.11697 0.25189,0.25642 -0.002,0.13944 -0.11855,0.25052 -0.25988,0.24852 -1.8165,0.47442 -5.1937,0.45022 -7.2255,0.41872 -2.2748,-0.0353 -6.01406,-0.41575 -6.3394,-0.84575 -0.7576,-1.00136 3.8902,-1.03325 6.5841,-0.82249 z"
         color="#000000"
         stroke-linecap="round"
         stroke-linejoin="round"
         stroke-width="0.50834"
         style="stroke:#000000;-inkscape-stroke:none"
         id="path104" />
      <path
         d="m 83.41927,72.25162 -2.1e-4,-0.0014 c -0.6125,-0.03856 -1.18165,0.1964 -1.7509,0.63039 -0.5692,0.4339 -1.10727,1.0419 -1.6647,2.2038 -0.5574,1.1618 -1.12801,2.8825 -1.6089,4.5344 -0.48088,1.6519 -0.8728,3.23444 -1.183,4.1389 -0.31023,0.90459 -0.53387,1.11616 -0.63039,1.4011 -0.09653,0.28494 -0.105,0.78878 -0.0338,0.9853 0.0356,0.09827 0.13734,0.22872 0.2214,0.58476 0.08406,0.356 0.15511,0.9396 0.1876,2.0568 0.06499,2.2347 -0.03112,6.6012 -0.05577,10.445 -0.02465,3.8438 0.0224,7.1603 -0.06253,8.9353 -0.04247,0.88752 -0.11726,1.38992 -0.19605,1.7171 -0.0788,0.32717 -0.15752,0.47305 -0.1876,0.59659 -0.06021,0.24728 -0.0028,0.68233 0.08788,0.87883 0.0454,0.0984 0.14389,0.23078 0.21802,0.55264 0.07413,0.3219 0.13409,0.83881 0.16563,1.8219 0.06308,1.9661 0.0089,5.7925 0.13858,8.7274 0.12967,2.9349 0.44242,4.9839 0.70644,6.7078 0.26403,1.7239 0.48368,3.12693 0.63546,3.6387 0.03795,0.12796 0.07253,0.19827 0.09126,0.22817 0.01877,0.0298 0.0109,0.0178 0.0085,0.0169 -0.0024,-0.001 0.02574,1e-4 0.09464,0.0389 0.0689,0.0388 0.1376,0.12167 0.17238,0.20787 0.06948,0.17217 0.09355,0.38572 0.15718,0.66758 0.06363,0.28186 0.15448,0.61211 0.30083,0.92953 0.29277,0.63488 0.84651,1.27755 1.1966,1.6258 0.35028,0.34846 0.45368,0.38641 0.61349,0.45801 a 0.22804,0.22804 0 0 1 0.12675,0.14535 l 0.18084,0.63715 0.21295,-0.62194 a 0.22804,0.22804 0 0 1 0.06929,-0.10141 c 0.38859,-0.3288 0.73404,-0.6113 1.3233,-1.6934 0.5892,-1.082 1.40057,-2.9563 1.8861,-4.4009 0.48556,-1.4446 0.65357,-2.4781 1.0259,-4.1778 0.3723,-1.6997 0.94177,-4.0297 1.445,-7.6847 0.50322,-3.6546 0.9396,-8.6393 1.1543,-13.275 0.21469,-4.6354 0.20847,-8.9262 0.14534,-13.412 -0.06313,-4.4855 -0.18229,-9.1605 -0.16562,-11.416 0.0051,-0.69741 0.0238,-1.13913 0.05746,-1.4399 -0.02651,-0.10922 -0.04929,-0.21451 -0.07436,-0.30928 -0.12299,-0.46512 -0.25711,-0.92306 -0.41068,-1.3656 -0.07666,-0.22089 -0.15819,-0.43774 -0.24506,-0.65236 -0.08669,-0.21416 -0.17905,-0.42422 -0.27717,-0.63039 -0.09819,-0.20632 -0.20276,-0.40944 -0.31266,-0.60842 -0.1101,-0.19932 -0.22604,-0.39497 -0.34646,-0.58814 -0.24096,-0.38649 -0.50196,-0.76183 -0.77573,-1.1306 -0.27375,-0.36876 -0.56089,-0.7313 -0.85517,-1.0901 -0.06792,-0.08281 -0.13879,-0.16702 -0.21126,-0.25351 -0.5077,-0.39742 -1.0677,-0.62716 -1.5751,-0.65912 z M 83.448,71.797 l -1.1e-4,2.6e-4 c 0.6239,0.03929 1.26706,0.30983 1.8388,0.76052 a 0.22804,0.22804 0 0 1 0.0338,0.0338 c 0.07677,0.09222 0.1579,0.1859 0.2383,0.28393 0.29734,0.36254 0.58904,0.73031 0.86869,1.107 0.27963,0.37669 0.5472,0.76196 0.79602,1.1611 0.12447,0.19968 0.24416,0.40181 0.35829,0.60842 0.11431,0.20696 0.2223,0.41905 0.32449,0.63377 0.10227,0.21488 0.19914,0.43374 0.289,0.65574 0.08967,0.22153 0.17427,0.44599 0.25351,0.67433 0.15822,0.45597 0.29556,0.92405 0.42082,1.3977 0.03227,0.12198 0.05605,0.23951 0.08281,0.34646 a 0.22804,0.22804 0 0 1 0.0051,0.08281 c -0.03142,0.2608 -0.05217,0.724 -0.05747,1.4399 -0.01652,2.2346 0.10244,6.9166 0.16563,11.406 0.06318,4.4894 0.07166,8.7919 -0.14366,13.441 -0.21535,4.6492 -0.6534,9.6409 -1.1594,13.316 -0.50603,3.6751 -1.07991,6.0303 -1.4501,7.7202 -0.37021,1.6899 -0.5431,2.7484 -1.0394,4.2251 -0.4963,1.4767 -1.30759,3.3523 -1.9182,4.4736 -0.58516,1.0746 -0.99457,1.4276 -1.3706,1.7475 l -0.43772,1.2878 a 0.22804,0.22804 0 0 1 -0.43603,-0.0101 l -0.36336,-1.2726 c -0.15188,-0.0736 -0.32022,-0.1495 -0.64222,-0.46984 -0.37647,-0.3745 -0.95403,-1.03539 -1.2878,-1.7593 -0.1669,-0.36198 -0.2643,-0.72423 -0.33125,-1.0208 -0.06601,-0.2924 -0.11344,-0.53483 -0.13351,-0.58813 -0.0083,-0.002 -0.0083,0.003 -0.0507,-0.0186 -0.06388,-0.032 -0.13808,-0.0965 -0.19098,-0.18083 -0.05289,-0.0843 -0.09699,-0.18978 -0.14196,-0.34139 -0.17988,-0.6065 -0.38493,-1.9755 -0.64898,-3.6995 -0.26405,-1.724 -0.58083,-3.7989 -0.71151,-6.7568 -0.13068,-2.9579 -0.07638,-6.794 -0.13858,-8.7325 -0.03109,-0.96925 -0.09194,-1.46542 -0.15379,-1.734 -0.06186,-0.26858 -0.11275,-0.30253 -0.1876,-0.46476 -0.14982,-0.32476 -0.21245,-0.78441 -0.11661,-1.178 0.04795,-0.19691 0.1164,-0.30628 0.18591,-0.5949 0.06951,-0.2886 0.1443,-0.76287 0.18591,-1.6326 0.08322,-1.7394 0.03615,-5.0674 0.06084,-8.9167 0.02469,-3.8496 0.12156,-8.2244 0.05747,-10.428 -0.03205,-1.10173 -0.10584,-1.6621 -0.17746,-1.9655 -0.07163,-0.3034 -0.13641,-0.34778 -0.2045,-0.53575 -0.13622,-0.37593 -0.10489,-0.88496 0.03042,-1.2844 0.13531,-0.3994 0.33525,-0.54386 0.63039,-1.4044 0.29519,-0.8606 0.69217,-2.454 1.1763,-4.117 0.4842,-1.6631 1.05542,-3.3953 1.636,-4.6054 0.5805,-1.2101 1.17434,-1.89217 1.7982,-2.3678 0.6238,-0.47559 1.30907,-0.77041 2.0568,-0.72334 z"
         color="#000000"
         stroke-linecap="round"
         stroke-linejoin="round"
         stroke-width="0.34612"
         id="path106"
         style="stroke:#000000" />
      <path
         d="m 85.146,72.737 8e-5,-10e-5 c 0.10756,0.08479 0.21355,0.17585 0.31531,0.27434 0.6137,0.5939 1.10742,1.43153 1.7057,1.8509 0.5983,0.4194 1.30033,0.4211 2.2027,1.7948 0.9024,1.3737 2.00516,4.1183 2.4744,6.536 0.46925,2.4177 0.30533,4.5078 0.01961,6.4238 -0.28576,1.916 -0.69308,3.65825 -1.0297,4.3591 -0.33663,0.70086 -0.60284,0.36043 -0.67694,-0.40794 -0.0741,-0.7683 0.04449,-1.9647 0.163,-3.1611 l 0.54244,-0.30016 0.11846,-3.5789 -0.42932,-0.17725 c -0.05714,-1.0305 -0.1145,-2.0605 -0.3741,-3.2671 -0.25963,-1.2066 -0.72176,-2.58983 -1.0288,-3.3749 -0.20866,-0.53353 -0.34522,-0.78862 -0.41685,-0.19417 -0.0285,-0.1139 -0.05207,-0.2308 -0.08194,-0.34382 -0.12413,-0.46936 -0.26095,-0.93136 -0.41685,-1.3806 -0.07796,-0.22461 -0.16112,-0.44549 -0.2494,-0.66357 -0.08828,-0.21807 -0.18216,-0.43257 -0.28236,-0.64309 -0.10019,-0.21052 -0.20676,-0.41785 -0.31887,-0.62082 -0.11211,-0.20297 -0.22939,-0.40214 -0.35183,-0.59856 -0.24489,-0.3928 -0.5089,-0.77359 -0.7856,-1.1463 -0.2767,-0.37267 -0.5664,-0.73754 -0.86221,-1.0982 C 85.30507,72.92443 85.22462,72.83144 85.146,72.737 Z"
         stroke-width="0.17306"
         id="path108"
         style="stroke:#000000" />
      <path
         d="m 88.823,102.03 -8e-5,5e-5 c 0.05995,-0.01 0.01,0.14243 0.059,0.17813 0.10168,0.0739 0.10391,0.16256 0.04383,0.27296 -0.3137,0.5763 0.6295,1.26976 -1.4643,2.051 -1.15,0.4291 -3.6233,0.47124 -5.1227,0.31218 -4.4966,-0.4771 -3.65286,-2.1619 -2.9821,-2.1243 0.759,0.0426 6.9157,2.41618 9.3176,-0.59832 0.03543,-0.049 0.08895,-0.0817 0.14875,-0.0917 z"
         color="#000000"
         style="-inkscape-stroke:none"
         id="path112" />
      <path
         d="m 79.305,106.18 1.1e-4,1.6e-4 c 0.10603,0.002 0.22806,0.0113 0.36876,0.0133 0.7503,0.013 2.0284,-0.14373 2.4405,0.60746 0.4121,0.7512 -0.04101,2.41 -0.30462,4.0314 -0.26362,1.6214 -0.33716,3.204 -0.37766,4.2246 -0.04053,1.02062 -0.04744,1.47768 -0.05434,1.9355 l 0.4124,0.9495 c -0.11595,3.5232 -0.2322,7.0469 -0.35807,9.6464 -0.12586,2.5994 -0.26161,4.27547 -0.44446,5.2507 -0.18285,0.97523 -0.41293,1.25002 -0.72593,0.66802 -0.31302,-0.582 -0.70944,-2.02139 -1.125,-2.3657 -0.33287,-0.27581 -0.67769,0.15619 -1.0252,0.72325 -0.10465,-0.6215 -0.21919,-1.36844 -0.34738,-2.2054 -0.09765,-0.6375 -0.20058,-1.34656 -0.30017,-2.1047 0.01547,-0.007 0.03194,-0.0116 0.04721,-0.0196 0.07234,-0.0346 0.14209,-0.0726 0.20932,-0.11489 0.06724,-0.0423 0.13172,-0.0892 0.1924,-0.14163 0.06068,-0.0524 0.11747,-0.10998 0.17013,-0.17458 0.05266,-0.0647 0.1011,-0.13635 0.14429,-0.21555 0.04319,-0.0791 0.08177,-0.16597 0.11401,-0.26187 0.03225,-0.0959 0.05848,-0.20024 0.07927,-0.31174 0.0208,-0.1115 0.03573,-0.23007 0.04543,-0.35273 0.0097,-0.12265 0.01431,-0.2501 0.01336,-0.37943 -0.001,-0.12935 -0.0073,-0.26036 -0.0187,-0.39192 -0.01135,-0.13155 -0.02859,-0.26348 -0.04989,-0.3928 -0.02131,-0.12931 -0.04746,-0.25596 -0.07838,-0.37855 -0.0309,-0.12259 -0.06586,-0.24132 -0.10599,-0.35272 -0.04012,-0.1114 -0.08464,-0.21604 -0.13361,-0.31174 -0.04897,-0.0957 -0.10232,-0.18209 -0.15944,-0.26099 -0.05711,-0.079 -0.11842,-0.15025 -0.18259,-0.21465 -0.06417,-0.0644 -0.13116,-0.12249 -0.2013,-0.17459 -0.07014,-0.052 -0.14321,-0.0986 -0.21822,-0.14073 -0.07502,-0.042 -0.15278,-0.0798 -0.23159,-0.11401 -0.0076,-0.004 -0.01557,-0.006 -0.02317,-0.009 l -0.03739,-0.45693 c -0.03118,-0.864 -0.05033,-1.76103 -0.06146,-2.6784 0.49439,0.2938 0.96961,0.50989 1.2416,-0.10068 0.30248,-0.679 0.35578,-2.3741 0.35718,-4.8419 0.0014,-2.4678 -0.0491,-5.7082 0.0374,-7.237 0.06489,-1.14664 0.20722,-1.3303 0.59054,-1.345 0.03194,-0.001 0.0653,-0.002 0.10065,-8.6e-4 z"
         id="path114" />
      <path
         d="m 76.793,90.336 7e-5,-6.5e-4 c -0.0016,-0.6223 -0.0062,-1.1933 -0.01961,-1.654 -0.06454,-2.21897 -0.29178,-2.28525 -0.39547,-2.5715 -0.10372,-0.28628 -0.08386,-0.79261 0.03206,-1.1348 0.11592,-0.3422 0.32794,-0.51946 0.63062,-1.402 0.17576,-0.5125 0.38597,-1.27586 0.62261,-2.1395 0.03941,0.13972 0.07129,0.27871 0.11579,0.41418 0.04771,0.14524 0.09854,0.28492 0.15053,0.41507 0.05199,0.13015 0.10571,0.25 0.16033,0.3545 0.05462,0.10449 0.11006,0.19361 0.16567,0.26187 0.05562,0.06827 0.11159,0.11569 0.16656,0.13717 0.02748,0.01065 0.05401,0.01515 0.08105,0.01245 0.02702,-0.003 0.05379,-0.01327 0.08016,-0.03119 0.05271,-0.03589 0.10441,-0.10284 0.1532,-0.20665 0.0488,-0.10381 0.09892,-0.23911 0.15142,-0.39904 0.0525,-0.15993 0.10755,-0.34497 0.16389,-0.54957 0.11267,-0.4092 0.23286,-0.89627 0.36163,-1.4153 0.12877,-0.519 0.26563,-1.06966 0.41151,-1.6068 0.14588,-0.53714 0.30095,-1.06046 0.46495,-1.524 0.082,-0.23177 0.16641,-0.44825 0.25207,-0.65022 0.08566,-0.20198 0.17189,-0.38968 0.2592,-0.56204 0.08731,-0.17236 0.17579,-0.33006 0.26276,-0.47297 0.08697,-0.14292 0.17278,-0.27113 0.25741,-0.38479 0.08464,-0.11366 0.16732,-0.21203 0.24762,-0.29661 0.0803,-0.08457 0.15851,-0.15454 0.23248,-0.21021 0.07396,-0.05566 0.14369,-0.09776 0.20931,-0.1247 0.06564,-0.0269 0.1273,-0.0392 0.1826,-0.0374 0.0553,0.0016 0.10472,0.01701 0.14964,0.04455 0.0449,0.02757 0.08474,0.0673 0.12113,0.1158 0.03639,0.0485 0.06914,0.10658 0.09887,0.17102 0.02975,0.06443 0.05695,0.13481 0.08194,0.2102 0.09991,0.30152 0.16861,0.67124 0.26721,0.94772 0.0493,0.13824 0.10624,0.25302 0.163,0.35183 0.05675,0.09882 0.11396,0.18173 0.16389,0.25475 0.04992,0.07302 0.09232,0.13598 0.12113,0.19685 0.0287,0.06087 0.044,0.11935 0.0374,0.18171 -0.0066,0.06235 -0.0346,0.12895 -0.07838,0.19862 -0.04377,0.06966 -0.10338,0.14245 -0.17369,0.21733 -0.14064,0.14977 -0.3237,0.30772 -0.50682,0.46584 l -0.19685,20.97 c -0.11554,0.0022 -0.23087,0.0047 -0.93435,0.0392 -0.17587,0.0087 -0.38809,0.01948 -0.61726,0.0078 -0.11458,-0.0058 -0.23327,-0.01653 -0.35361,-0.03652 -0.12034,-0.02005 -0.24236,-0.04869 -0.36341,-0.0891 -0.12105,-0.04035 -0.24135,-0.09263 -0.35806,-0.15943 -0.11671,-0.06675 -0.23025,-0.14834 -0.33758,-0.24762 -0.10733,-0.09924 -0.20816,-0.2158 -0.30106,-0.35362 -0.0929,-0.13781 -0.17776,-0.29672 -0.25118,-0.4792 -0.07342,-0.18248 -0.13538,-0.38857 -0.18883,-0.61281 -0.05344,-0.22424 -0.09874,-0.46647 -0.13628,-0.72058 -0.03754,-0.2541 -0.06779,-0.52065 -0.09352,-0.79273 -0.02574,-0.27207 -0.04617,-0.55021 -0.06414,-0.82835 -0.03591,-0.5563 -0.06063,-1.11289 -0.08996,-1.622 -0.02934,-0.50916 -0.06313,-0.97027 -0.11847,-1.337 -0.02767,-0.18338 -0.06487,-0.34274 -0.10956,-0.4801 -0.0447,-0.13735 -0.09751,-0.25323 -0.15588,-0.35093 -0.05837,-0.09772 -0.12279,-0.17701 -0.1915,-0.24139 -0.06871,-0.06442 -0.14165,-0.11395 -0.21734,-0.15142 -0.07568,-0.03747 -0.15405,-0.06239 -0.23336,-0.07926 -0.0793,-0.01688 -0.15914,-0.02587 -0.23871,-0.02847 -0.10289,-0.0035 -0.1979,0.0082 -0.29483,0.01601 z"
         id="path116" />
      <path
         d="m 131.2299,163.6095 c 0.3764,-0.0574 1.0939,-1.97326 5.4808,-1.4839 l 17.901,0.18083 c 5.1239,-0.5107 6.6834,3.0211 8.4959,8.8035 l 6.1518,16.098 c 1.7063,4.1854 2.1156,5.59089 -3.4545,5.4048 -6.802,-0.0651 -20.3122,-0.46545 -26.5,-0.57123 -7.49864,0.5734 -7.9449,-1.5515 -7.9449,-1.5515"
         fill="none"
         stroke-width="1.384"
         id="path118"
         style="stroke:#000000;stroke-linecap:round;stroke-linejoin:round" />
      <path
         d="m 130.5901,163.6095 c -0.3764,-0.0574 -1.0939,-1.97326 -5.4808,-1.4839 l -17.901,0.18083 c -5.124,-0.5107 -6.6834,3.0211 -8.4959,8.8035 l -6.1518,16.098 c -1.7063,4.1854 -2.1156,5.59089 3.4545,5.4048 6.802,-0.0651 20.3122,-0.46545 26.5,-0.57123 7.49864,0.5734 7.9449,-1.5515 7.9449,-1.5515"
         fill="none"
         stroke-width="1.3845"
         id="path120"
         style="stroke:#000000;stroke-linecap:round;stroke-linejoin:round" />
      <path
         d="m 4.0595,203.88 0.00113,-3.8e-4 c 0,0 0.9171,2.08064 1.9387,1.4278 0.45562,-0.2911 -0.32322,-1.3056 -0.46223,-3.3796 1.66029,1.40993 1.40426,2.26769 1.9747,1.9464 1.2613,-0.7104 2.2141,-2.9368 3.2253,-3.9894 0,0 -0.25878,3.5929 0.03245,4.7926 0.29125,1.1997 0.32221,1.56516 1.209,2.3533 0.8868,0.78821 1.7849,1.1719 4.236,1.5855 2.4511,0.41358 7.9559,-0.38795 11.013,0.27744 3.0571,0.6654 5.4892,1.9446 7.1387,3.1765 6.1433,6.5415 1.7398,10.62135 4.1825,11.169 -0.308,1.1613 -1.89055,4.13889 -2.6035,4.8569 -1.5226,1.5334 -5.006,2.5662 -5.006,2.5662 0.5927,1.05147 2.0553,1.35549 4.319,0.97167 0,0 12.3708,-6.1961 16.004,-7.7295 l 7.2274,-3.0502 c 3.645,-1.5382 10.5476,-3.5138 15.628,-4.6458 5.0805,-1.13204 11.9708,-0.67784 13.584,0.22216 1.6132,0.9 2.40531,1.8206 1.8071,6.281 4.7001,1.6961 9.4489,3.2711 13.908,5.5042 0,0 0.0461,-2.3988 1.4937,-3.1896 1.448,-0.7908 13.8612,4.61811 19.014,4.988 5.1527,0.3699 6.833,-0.23696 11.201,-1.2345 4.3677,-0.9975 12.1583,-3.4572 14.052,-4.771 1.8937,-1.3138 4.4153,3.2945 4.4153,3.2945 2.413,-1.6342 5.4965,-3.7078 12.53,-4.8243 0,0 -0.47477,-3.4146 0.0219,-5.0791 0.639,-2.32159 7.4457,-2.8532 10.8,-2.8797 3.354,-0.0263 13.8942,1.3591 19.676,2.7753 5.7814,1.4162 10.8429,3.9936 15.061,5.9201 4.218,1.9265 5.4417,4.1146 10.547,5.245 1.73016,0.11455 3.10159,-0.19683 2.1023,-0.95985 -8.1611,-4.104 -6.1597,-9.0988 -3.2163,-15.871 1.5121,-1.6975 4.08647,-2.4552 3.8071,-4.117 2.174,-2.189 13.5006,-0.8117 19.315,-4.0668 0.9906,-0.5546 1.81149,-1.48054 2.3644,-2.4731 1.12161,-2.0135 1.6931,-6.633 1.6931,-6.633 l 3.1183,3.9769 1.9305,-0.8382 c 0,0 1.57779,7.5316 -0.42831,10.502 -1.4694,2.1756 -3.5746,4.6299 -9.0444,5.9654 -5.347,0.3428 -15.8284,0.2946 -18.04,1.8234 -2.2117,1.5288 0.32839,2.16067 1.2732,2.7114 2.8159,1.6413 6.00863,2.5794 5.7684,5.0584 -0.2402,2.479 -1.7304,7.7619 -1.7304,7.7619 0,0 -1.0838,3.4096 -1.3127,5.2205 -0.22891,1.8109 -0.14258,5.3168 0.20419,6.7692 0.34677,1.4524 -0.001,2.24257 0.7067,2.9635 -0.899,3.38243 -13.5944,3.26734 -15.01,2.8697 -1.4156,-0.3977 -1.8998,-0.6794 -5.5948,-2.0917 -3.695,-1.4123 -11.6015,-4.8753 -16.54,-6.4616 -4.9381,-1.58629 -13.0334,-2.82203 -12.997,-2.5018 0,0 -1.81085,2.7258 -2.6097,4.31 -2.1004,0.75686 -4.5512,-0.47644 -8.8414,0.84216 -4.2903,1.3187 -7.5204,3.3332 -12.354,6.1961 -3.8346,2.2713 -4.63954,0.749 -5.4204,-1.8838 -4.6419,-0.6568 -5.4993,1.20225 -9.7911,2.1683 -4.2923,0.96612 -7.646,1.65591 -12.852,1.3193 -5.206,-0.3366 -13.8489,-2.26198 -19.262,-2.7634 -5.4131,-0.5014 -5.4152,-1.96677 -6.771,-2.85 -1.3557,-0.8832 -0.2461,2.35374 -2.9513,2.8079 -2.7056,0.4542 -7.8858,-2.6649 -10.895,-3.7484 -3.0092,-1.08342 -7.88769,-0.8009 -9.5946,-1.8459 -1.70691,-1.045 -2.50346,-2.07743 -2.586,-3.001 -0.08255,-0.92356 0.74544,-1.3675 0.74544,-1.3675 0.701,-1.502 -11.2769,3.05682 -14.744,3.9156 -4.999,1.2381 -11.2599,4.6328 -17.25,7.2714 -6.176,1.6332 -21.9334,2.5241 -17.657,-1.9261 2.05643,-3.4721 0.62951,-3.6614 0.86503,-5.828 0.3591,-0.298 -2.77845,-10.5758 -3.1056,-15.014 -0.0756,-1.0266 1.1984,-3.4974 3.9229,-4.8354 2.72452,-1.33809 3.0629,-2.2165 3.0629,-2.2165 -1.8738,-1.89825 -5.8487,-1.5813 -5.8487,-1.5813 0,0 -11.5783,0.2908 -15.296,-1.0967 C 7.6467,215.554 6.4118,213.6541 5.3892,211.1209 4.36658,208.5877 3.971059,207.2568 4.0595,203.88 Z"
         stroke-width="1.833"
         id="path122"
         style="stroke:#000000;stroke-linecap:round;stroke-linejoin:round" />
      <path
         d="m 29.771804,282.39215 c 12.292791,-2.52709 24.583652,-5.05387 41.308972,-1.3339 16.725307,3.72002 37.883434,13.68575 61.487374,12.49328 23.60394,-1.19237 49.65096,-13.54112 73.25076,-15.72222 23.59982,-2.18109 44.74691,5.80614 65.89263,13.79245"
         fill="none"
         id="path158"
         style="stroke:none;stroke-width:1.45759" />
      <text
         xml:space="preserve"
         style="font-size:16.5539px;line-height:1.25;font-family:sans-serif;word-spacing:0px;stroke-width:0.413849"
         x="45.541492"
         y="30.501371"
         id="text3873"><tspan
           sodipodi:role="line"
           id="tspan3871"
           x="45.541492"
           y="30.501371"
           style="stroke-width:0.413849">Hebrew High School</tspan></text>
      <text
         xml:space="preserve"
         style="font-size:23.7893px;line-height:1.25;font-family:sans-serif;word-spacing:0px;fill:#ffffff;stroke-width:0.594735"
         id="text6453"
         transform="matrix(0.61756788,0,0,0.84579636,44.33241,0.04495665)"><textPath
           xlink:href="#path158"
           id="textPath7474"><tspan
             id="tspan6451"
             style="fill:#ffffff;stroke-width:0.594735">Wisdom is an asset</tspan></textPath></text>
    </g>
  </g>
</svg>
