<svg id="SVGRoot" version="1.1" viewBox="0 0 256 256" xmlns="http://www.w3.org/2000/svg">
   <g fill="none" stroke="currentColor" stroke-linecap="round">
      <path d="m233.47 50.968h-210.94c-0.22141 41.246-0.20713 82.51-0.0075 123.76 1.8695 32.998 29.67 58.85 59.941 67.994 21.252 7.0506 43.908 5.3862 65.925 4.9494 34.767-2.4901 71.102-22.956 82.232-57.563 4.8366-16.206 2.3686-33.272 2.979-49.927-0.0827-29.736 0.16818-59.479-0.13058-89.21z" stroke-width="1.8069"/>
      <path d="m225.52 59.708h-195.03c0.07453 36.996-0.14987 73.998 0.11366 110.99 1.8305 32.059 29.727 56.642 59.385 64.259 18.491 5.1584 37.888 3.7587 56.847 3.3871 32.733-2.308 66.981-22.148 76.451-55.113 3.8049-15.293 1.6813-31.191 2.2374-46.79v-76.733z" stroke-width="10"/>
      <rect x="20.376" y="7.9226" width="215.25" height="35.809" stroke-width="1.8242"/>
   </g>
   <rect x="26.381" y="12.319" width="203.24" height="27.016" fill="none" stroke="currentColor" stroke-linecap="round" stroke-linejoin="round" stroke-width="1.8242"/>
   <g stroke-width="1.0863" fill="currentColor">
      <path d="m137.48 22.39q0.85915 0 1.8284 0.29867 0.96928 0.29867 1.6302 0.29867h1.6962v0.74668h-1.8284q0.41855 0.80268 0.41855 1.5494 0 0.82135-0.39652 1.4374-0.3745 0.59734-0.94726 0.89602-0.57276 0.29867-1.1014 0.44801-0.52871 0.13067-0.99132 0.13067-0.59479 0-1.2557-0.09333-0.44058 0.112-0.88116 0.50401-0.44059 0.39201-0.44059 0.67201 0 0.44801 1.7183 0.50401l2.8418 0.09334q1.2336 0.03734 1.9386 0.59734 0.72696 0.54134 0.72696 1.4 0 1.344-1.8284 2.2587-1.8064 0.91468-3.8992 0.91468-1.5861 0-2.7096-0.54134-1.1014-0.52268-1.1014-1.2507 0-0.54134 0.48463-1.0454 0.48464-0.50401 1.6742-1.2507-0.66088-0.28-0.92523-0.48534-0.24232-0.224-0.24232-0.50401 0-0.18667 0.066-0.35467 0.0881-0.168 0.28638-0.37334 0.2203-0.20534 0.39653-0.35467 0.17624-0.14934 0.57276-0.44801 0.41855-0.29867 0.66087-0.50401-1.1014-0.46668-1.5861-1.0454-0.48464-0.57868-0.48464-1.456 0-1.2694 1.0794-2.1467 1.0794-0.89602 2.5994-0.89602zm-1.9826 8.6055q-0.6829 0.74668-0.88116 1.008-0.17624 0.28-0.17624 0.61601 0 0.61601 0.88117 0.98935 0.90319 0.37334 2.3571 0.37334 1.8504 0 2.996-0.50401 1.1675-0.50401 1.1675-1.3067 0-0.50401-0.63885-0.70934-0.61682-0.20534-2.1148-0.20534-2.269 0-3.5908-0.26134zm0.13218-6.2721q0 1.344 0.61681 2.184 0.61682 0.82135 1.6081 0.82135 0.77103 0 1.2336-0.44801 0.46261-0.46667 0.46261-1.2507 0-1.288-0.66087-2.2027-0.66088-0.91468-1.6302-0.91468-0.66088 0-1.1455 0.39201-0.48464 0.39201-0.48464 1.4187z"/>
      <path d="m38.437 24.276h6.6969v-3.6401q0-0.98935-0.35247-1.2694-0.33044-0.29867-1.6302-0.39201v-0.35467h6.1461v0.35467q-1.2777 0.09333-1.6081 0.39201-0.33044 0.28-0.33044 1.2694v8.3255q0 0.97068 0.35247 1.2694 0.35247 0.29867 1.5861 0.39201v0.35467h-6.1461v-0.35467q1.2997-0.056 1.6302-0.37334 0.35247-0.336 0.35247-1.512v-3.6401h-6.6969v3.8641q0 0.97068 0.35247 1.2694 0.35247 0.29867 1.5861 0.39201v0.35467h-6.1241v-0.35467q1.2777-0.056 1.6081-0.37334 0.33044-0.336 0.33044-1.512v-8.1015q0-0.98935-0.33044-1.2694-0.33044-0.29867-1.6081-0.39201v-0.35467h6.1241v0.35467q-1.2777 0.09333-1.6081 0.39201-0.33044 0.28-0.33044 1.2694z"/>
      <path d="m50.244 26.982q0-2.2027 1.3658-3.3974 1.3878-1.1947 3.2383-1.1947 1.8064 0 2.8197 1.064 0.41855 0.44801 0.61682 0.95202 0.19826 0.48534 0.35247 1.4h-6.807q0.08811 1.624 0.61682 2.464 0.9032 1.6054 2.8197 1.6054 1.0354 0 1.8284-0.44801 0.79305-0.44801 1.6081-1.512l0.30841 0.13067q-1.3878 3.1174-4.6482 3.1174-1.8945 0-3.018-1.12-1.1015-1.1387-1.1015-3.0614zm1.6522-1.7734h4.4719q-0.22029-1.2134-0.6829-1.6614-0.46261-0.46668-1.476-0.46668-1.9826 0-2.3131 2.128z"/>
      <path d="m62.801 18.265v5.7121q0.35247-0.67201 1.2116-1.12 0.85914-0.46667 1.8504-0.46667 1.6742 0 2.7977 1.176 1.1235 1.1574 1.1235 2.8747 0 1.9974-1.498 3.3601-1.498 1.3627-3.6789 1.3627-1.3217 0-2.4893-0.37334-1.1455-0.39201-1.1455-0.82135v-9.6882q0-0.57868-0.22029-0.76534-0.19826-0.18667-0.83711-0.18667-0.26435 0-0.39652 0.01867v-0.29867l0.63884-0.14934q1.9386-0.48534 2.5554-0.67201zm0 6.7014v4.7041q0 0.35467 0.63885 0.63468 0.66087 0.26134 1.52 0.26134 1.3658 0 2.0928-0.85868 0.74899-0.85868 0.74899-2.4267 0-1.6987-0.77102-2.7067-0.74899-1.008-2.0267-1.008-0.83711 0-1.52 0.42934-0.6829 0.42934-0.6829 0.97068z"/>
      <path d="m76.965 24.22q-0.35247 0-0.81508-0.31734-0.44058-0.33601-0.63885-0.33601-0.44058 0-0.99131 0.54134-0.55073 0.54134-0.55073 0.98935v4.2187q0 0.76534 0.3745 1.064 0.3745 0.28001 1.498 0.31734v0.28h-5.309v-0.28q1.0574-0.14934 1.3217-0.35467 0.26435-0.224 0.26435-0.91468v-4.6854q0-0.61601-0.17623-0.85868-0.1542-0.26134-0.57276-0.26134-0.35247 0-0.77102 0.07466v-0.29867q1.8725-0.50401 3.2603-1.008l0.11015 0.03734v1.7174q0.81508-0.98935 1.3878-1.3627 0.57276-0.39201 1.2557-0.39201 0.55073 0 0.88117 0.28 0.33044 0.26134 0.33044 0.70934 0 0.39201-0.24232 0.61601-0.24232 0.224-0.61682 0.224z"/>
      <path d="m78.111 26.982q0-2.2027 1.3658-3.3974 1.3878-1.1947 3.2383-1.1947 1.8064 0 2.8197 1.064 0.41855 0.44801 0.61682 0.95202 0.19826 0.48534 0.35247 1.4h-6.807q0.08811 1.624 0.61682 2.464 0.9032 1.6054 2.8197 1.6054 1.0354 0 1.8284-0.44801 0.79305-0.44801 1.6081-1.512l0.30841 0.13067q-1.3878 3.1174-4.6482 3.1174-1.8945 0-3.018-1.12-1.1015-1.1387-1.1015-3.0614zm1.6522-1.7734h4.4719q-0.22029-1.2134-0.6829-1.6614-0.46261-0.46668-1.476-0.46668-1.9826 0-2.3131 2.128z"/>
      <path d="m94.17 25.172q-0.63885-1.512-0.96928-1.8854-0.30841-0.37334-1.0133-0.42934v-0.28h4.4499v0.28q-0.77102 0.09334-1.0133 0.24267-0.24232 0.13067-0.24232 0.44801 0 0.20534 0.35247 1.0827l1.8725 4.1814 1.9826-4.1441q0.3745-0.78401 0.3745-1.232 0-0.224-0.22029-0.35467-0.19826-0.13067-0.74899-0.224v-0.28h2.7096v0.28q-0.33044 0.09334-0.46261 0.26134-0.13218 0.14934-0.44059 0.74668l-3.018 6.4588q-0.48464 0.93335-0.61682 0.93335-0.11015 0-0.19826-0.112-0.06609-0.112-0.35247-0.70934l-2.0047-4.4054-2.4452 4.4801q-0.44058 0.74668-0.59479 0.74668t-0.55073-0.82135l-2.9519-6.4028q-0.33044-0.70934-0.57276-0.93335-0.22029-0.224-0.61682-0.24267v-0.28h3.9652v0.28q-0.57276 0.056-0.79305 0.20534-0.22029 0.13067-0.22029 0.42934 0 0.26134 0.13218 0.54134l2.2029 4.8721z"/>
      <path d="m114.94 24.276h6.6969v-3.6401q0-0.98935-0.35246-1.2694-0.33044-0.29867-1.6302-0.39201v-0.35467h6.1461v0.35467q-1.2777 0.09333-1.6081 0.39201-0.33044 0.28-0.33044 1.2694v8.3255q0 0.97068 0.35247 1.2694 0.35246 0.29867 1.5861 0.39201v0.35467h-6.1461v-0.35467q1.2997-0.056 1.6302-0.37334 0.35246-0.336 0.35246-1.512v-3.6401h-6.6969v3.8641q0 0.97068 0.35246 1.2694 0.35247 0.29867 1.5861 0.39201v0.35467h-6.1241v-0.35467q1.2777-0.056 1.6081-0.37334 0.33044-0.336 0.33044-1.512v-8.1015q0-0.98935-0.33044-1.2694-0.33043-0.29867-1.6081-0.39201v-0.35467h6.1241v0.35467q-1.2777 0.09333-1.6081 0.39201-0.33043 0.28-0.33043 1.2694z"/>
      <path d="m127.57 23.622q-0.33044 0-0.9032 0.07466v-0.29867l3.3705-1.008 0.11015 0.056v6.6081q0 1.0267 0.26434 1.288 0.26436 0.26134 1.3658 0.35467v0.28h-5.2209v-0.28q1.1455-0.056 1.4319-0.336 0.30841-0.28 0.30841-1.3067v-4.3121q0-0.61601-0.17623-0.85868-0.15421-0.26134-0.55073-0.26134zm1.4319-5.3948q0.48465 0 0.81508 0.28 0.35247 0.26134 0.35247 0.65334 0 0.41067-0.33044 0.69068-0.33043 0.26134-0.83711 0.26134-0.46261 0-0.77102-0.26134-0.30841-0.28-0.30841-0.69068 0-0.39201 0.30841-0.65334 0.33044-0.28 0.77102-0.28z"/>
      <path d="m146.73 24.574v4.4801q0 0.97068 0.26436 1.2694 0.28638 0.29867 1.2557 0.37334v0.28h-4.7803v-0.28q0.94724-0.112 1.1675-0.37334 0.24232-0.28 0.24232-1.2694v-8.7735q0-0.61601-0.22029-0.78401-0.19827-0.168-0.9032-0.168-0.1542 0-0.26434 0.01867v-0.29867l0.59477-0.14934q2.3571-0.61601 2.5334-0.67201l0.11014 0.056v5.6748q0.77102-0.85868 1.52-1.2134 0.74899-0.35467 1.7403-0.35467 2.7096 0 2.7096 2.9494v3.7147q0 0.97068 0.22028 1.2507 0.2203 0.26134 1.1015 0.39201v0.28h-4.6922v-0.28q0.94725-0.07466 1.2116-0.37334 0.28638-0.29867 0.28638-1.2694v-3.6774q0-1.9787-1.6522-1.9787-1.2116 0-2.4452 1.176z"/>
      <path d="m167.73 18.34q0.85913 0 1.9826 0.336 1.1235 0.31734 1.2997 0.31734 0.57275 0 0.70493-0.65334h0.46261l0.48464 3.9947h-0.55072q-0.46262-1.4374-1.3218-2.184-1.1675-1.0454-2.7096-1.0454-1.0133 0-1.6522 0.48534-0.63884 0.48534-0.63884 1.2694 0 0.76534 0.74899 1.4187 0.77102 0.65334 1.8504 1.176 1.0794 0.50401 2.1588 1.064 1.0794 0.56001 1.8284 1.4187 0.77102 0.84001 0.77102 1.904 0 1.456-1.2997 2.4454-1.2997 0.97068-3.1942 0.97068-1.0354 0-2.247-0.33601-1.1896-0.336-1.3878-0.336-0.24232 0-0.41855 0.18667-0.17624 0.18667-0.19827 0.44801h-0.48463l-0.66088-3.9574h0.48464q0.85914 1.6987 1.9386 2.5014 1.0794 0.80268 2.5333 0.80268 1.2116 0 1.9606-0.57868 0.74899-0.57868 0.74899-1.5307 0-0.33601-0.0881-0.57868-0.066-0.24267-0.37449-0.67201-0.30841-0.42934-1.1015-0.93335-0.77101-0.52268-2.0267-1.1014-1.8284-0.82135-2.6435-1.6614-0.81507-0.84002-0.81507-1.96 0-1.4934 1.2116-2.352 1.2336-0.85868 2.6435-0.85868z"/>
      <path d="m175.11 27.02q0-1.176 0.46262-2.0907 0.48463-0.93335 1.2116-1.456 0.749-0.54134 1.5641-0.80268 0.81507-0.28 1.6081-0.28 1.3658 0 2.3571 0.57868 1.0133 0.56001 1.0133 1.344 0 0.31734-0.30841 0.56001-0.30841 0.224-0.74899 0.224-0.33044 0-0.61682-0.224-0.28638-0.24267-0.41856-0.61601l-0.13217-0.44801q-0.17623-0.50401-0.44058-0.69068t-0.83711-0.18667q-1.3438 0-2.1809 0.91468-0.81509 0.89602-0.81509 2.352 0 1.6054 0.94726 2.6134 0.94725 1.008 2.4232 1.008 0.94726 0 1.6302-0.39201 0.70493-0.39201 1.498-1.3814l0.30841 0.20534q-0.35247 0.57868-0.59479 0.87735-0.2203 0.29867-0.79306 0.87735-0.55072 0.57868-1.2997 0.87735-0.749 0.28-1.6522 0.28-1.8284 0-3.018-1.1574-1.1676-1.176-1.1676-2.9867z"/>
      <path d="m187.29 24.574v4.4801q0 0.97068 0.26435 1.2694 0.28638 0.29867 1.2557 0.37334v0.28h-4.7803v-0.28q0.94726-0.112 1.1676-0.37334 0.24233-0.28 0.24233-1.2694v-8.7735q0-0.61601-0.2203-0.78401-0.19826-0.168-0.9032-0.168-0.1542 0-0.26435 0.01867v-0.29867l0.59479-0.14934q2.3571-0.61601 2.5334-0.67201l0.11014 0.056v5.6748q0.77102-0.85868 1.52-1.2134 0.749-0.35467 1.7403-0.35467 2.7096 0 2.7096 2.9494v3.7147q0 0.97068 0.22029 1.2507 0.22029 0.26134 1.1014 0.39201v0.28h-4.6922v-0.28q0.94725-0.07466 1.2116-0.37334 0.28638-0.29867 0.28638-1.2694v-3.6774q0-1.9787-1.6522-1.9787-1.2116 0-2.4452 1.176z"/>
      <path d="m200.33 22.39q2.1148 0 3.4806 1.1947 1.3658 1.1947 1.3658 3.024 0 1.9227-1.4099 3.2481-1.4099 1.3067-3.4806 1.3067t-3.4586-1.2507q-1.3658-1.2694-1.3658-3.1547 0-1.9414 1.3438-3.1547 1.3658-1.2134 3.5247-1.2134zm-2.8858 3.4534q0 0.76534 0.1542 1.568 0.17624 0.78401 0.5287 1.5307 0.35247 0.74668 0.96929 1.232 0.63883 0.46667 1.476 0.46667 1.2116 0 1.8945-0.89602 0.70493-0.89601 0.70493-2.4827 0-1.904-0.88117-3.1174-0.85913-1.232-2.247-1.232-1.1675 0-1.8945 0.80268-0.70493 0.78401-0.70493 2.128z"/>
      <path d="m211.32 22.39q2.1148 0 3.4806 1.1947 1.3658 1.1947 1.3658 3.024 0 1.9227-1.4099 3.2481-1.4099 1.3067-3.4806 1.3067-2.0707 0-3.4586-1.2507-1.3658-1.2694-1.3658-3.1547 0-1.9414 1.3438-3.1547 1.3658-1.2134 3.5247-1.2134zm-2.8858 3.4534q0 0.76534 0.1542 1.568 0.17624 0.78401 0.52871 1.5307 0.35246 0.74668 0.96928 1.232 0.63885 0.46667 1.476 0.46667 1.2116 0 1.8945-0.89602 0.70493-0.89601 0.70493-2.4827 0-1.904-0.88117-3.1174-0.85913-1.232-2.247-1.232-1.1676 0-1.8945 0.80268-0.70493 0.78401-0.70493 2.128z"/>
      <path d="m217.22 19.348v-0.29867q2.1589-0.44801 3.5247-0.82135l0.066 0.03734v11.163q0 0.74668 0.28638 0.98935 0.30841 0.224 1.3438 0.28v0.28h-5.1769v-0.28q1.0354-0.09333 1.3658-0.336 0.33044-0.26134 0.33044-0.98935v-8.9228q0-0.65334-0.19827-0.89601-0.19827-0.24267-0.72696-0.24267-0.15421 0-0.6829 0.03734z"/>
   </g>
   <path d="m128 151.41c28.927 16.701 57.854 33.402 86.78 50.103m-86.78-141.8v91.701c-28.928 16.701-57.855 33.403-86.783 50.104" fill="none" stroke="currentColor" stroke-linecap="round" stroke-linejoin="round" stroke-width="10"/>
</svg>
