<svg id="SVGRoot" version="1.1" viewBox="0 0 256 256" xmlns="http://www.w3.org/2000/svg">
    <defs>
        <filter id="filter4087" x="-.10638" y="-.13022" width="1.2132" height="1.2604" color-interpolation-filters="sRGB">
            <feGaussianBlur in="SourceGraphic" result="result0" stdDeviation="0.5"/>
            <feTurbulence baseFrequency="0.2" numOctaves="10" result="result1" seed="300" type="fractalNoise"/>
            <feGaussianBlur result="result8" stdDeviation="0.5"/>
            <feDisplacementMap in="result0" in2="result8" result="result7" scale="5" xChannelSelector="R"/>
            <feComposite in="result7" in2="result1" operator="in" result="result2"/>
            <feComposite in="result0" in2="result2" k3="3" operator="arithmetic"/>
            <feBlend in2="result2" mode="multiply" result="fbSourceGraphic"/>
            <feColorMatrix in="fbSourceGraphic" result="fbSourceGraphicAlpha" values="1 0 0 -1 0 1 0 1 -1 0 1 0 0 -1 0 -1.8 -0.5 0 5.7 -3.5 "/>
            <feGaussianBlur in="fbSourceGraphicAlpha" result="result0" stdDeviation="0.5"/>
            <feSpecularLighting result="result6" specularExponent="3" surfaceScale="5">
                <feDistantLight azimuth="225" elevation="10"/>
            </feSpecularLighting>
            <feComposite in="result6" in2="fbSourceGraphicAlpha" operator="in" result="result2"/>
            <feComposite in="fbSourceGraphic" in2="result2" k2="1" k3="0.7" operator="arithmetic" result="result4"/>
        </filter>
        <filter id="filter4134" x="-.12075" y="-.15205" width="1.2417" height="1.3041" color-interpolation-filters="sRGB">
            <feGaussianBlur in="SourceGraphic" result="result0" stdDeviation="0.5"/>
            <feTurbulence baseFrequency="0.2" numOctaves="10" result="result1" seed="300" type="fractalNoise"/>
            <feGaussianBlur result="result8" stdDeviation="0.5"/>
            <feDisplacementMap in="result0" in2="result8" result="result7" scale="5" xChannelSelector="R"/>
            <feComposite in="result7" in2="result1" operator="in" result="result2"/>
            <feComposite in="result0" in2="result2" k3="3" operator="arithmetic"/>
            <feBlend in2="result2" mode="multiply" result="fbSourceGraphic"/>
            <feColorMatrix in="fbSourceGraphic" result="fbSourceGraphicAlpha" values="1 0 0 -1 0 1 0 1 -1 0 1 0 0 -1 0 -1.8 -0.5 0 5.7 -3.5 "/>
            <feGaussianBlur in="fbSourceGraphicAlpha" result="result0" stdDeviation="0.5"/>
            <feSpecularLighting result="result6" specularExponent="3" surfaceScale="5">
                <feDistantLight azimuth="225" elevation="10"/>
            </feSpecularLighting>
            <feComposite in="result6" in2="fbSourceGraphicAlpha" operator="in" result="result2"/>
            <feComposite in="fbSourceGraphic" in2="result2" k2="1" k3="0.7" operator="arithmetic" result="result4"/>
        </filter>
        <filter id="filter4181" x="-.11738" y="-.15607" width="1.2348" height="1.3121" color-interpolation-filters="sRGB">
            <feGaussianBlur in="SourceGraphic" result="result0" stdDeviation="0.5"/>
            <feTurbulence baseFrequency="0.2" numOctaves="10" result="result1" seed="300" type="fractalNoise"/>
            <feGaussianBlur result="result8" stdDeviation="0.5"/>
            <feDisplacementMap in="result0" in2="result8" result="result7" scale="5" xChannelSelector="R"/>
            <feComposite in="result7" in2="result1" operator="in" result="result2"/>
            <feComposite in="result0" in2="result2" k3="3" operator="arithmetic"/>
            <feBlend in2="result2" mode="multiply" result="fbSourceGraphic"/>
            <feColorMatrix in="fbSourceGraphic" result="fbSourceGraphicAlpha" values="1 0 0 -1 0 1 0 1 -1 0 1 0 0 -1 0 -1.8 -0.5 0 5.7 -3.5 "/>
            <feGaussianBlur in="fbSourceGraphicAlpha" result="result0" stdDeviation="0.5"/>
            <feSpecularLighting result="result6" specularExponent="3" surfaceScale="5">
                <feDistantLight azimuth="225" elevation="10"/>
            </feSpecularLighting>
            <feComposite in="result6" in2="fbSourceGraphicAlpha" operator="in" result="result2"/>
            <feComposite in="fbSourceGraphic" in2="result2" k2="1" k3="0.7" operator="arithmetic" result="result4"/>
        </filter>
        <filter id="filter4304" x="-.11138" y="-.14808" width="1.2228" height="1.2962" color-interpolation-filters="sRGB">
            <feGaussianBlur in="SourceGraphic" result="result0" stdDeviation="0.5"/>
            <feTurbulence baseFrequency="0.2" numOctaves="10" result="result1" seed="300" type="fractalNoise"/>
            <feGaussianBlur result="result8" stdDeviation="0.5"/>
            <feDisplacementMap in="result0" in2="result8" result="result7" scale="5" xChannelSelector="R"/>
            <feComposite in="result7" in2="result1" operator="in" result="result2"/>
            <feComposite in="result0" in2="result2" k3="3" operator="arithmetic"/>
            <feBlend in2="result2" mode="multiply" result="fbSourceGraphic"/>
            <feColorMatrix in="fbSourceGraphic" result="fbSourceGraphicAlpha" values="1 0 0 -1 0 1 0 1 -1 0 1 0 0 -1 0 -1.8 -0.5 0 5.7 -3.5 "/>
            <feGaussianBlur in="fbSourceGraphicAlpha" result="result0" stdDeviation="0.5"/>
            <feSpecularLighting result="result6" specularExponent="3" surfaceScale="5">
                <feDistantLight azimuth="225" elevation="10"/>
            </feSpecularLighting>
            <feComposite in="result6" in2="fbSourceGraphicAlpha" operator="in" result="result2"/>
            <feComposite in="fbSourceGraphic" in2="result2" k2="1" k3="0.7" operator="arithmetic" result="result4"/>
        </filter>
        <filter id="filter4332" x="-.10337" y="-.13408" width="1.2067" height="1.2682" color-interpolation-filters="sRGB">
            <feGaussianBlur in="SourceGraphic" result="result0" stdDeviation="0.5"/>
            <feTurbulence baseFrequency="0.2" numOctaves="10" result="result1" seed="300" type="fractalNoise"/>
            <feGaussianBlur result="result8" stdDeviation="0.5"/>
            <feDisplacementMap in="result0" in2="result8" result="result7" scale="5" xChannelSelector="R"/>
            <feComposite in="result7" in2="result1" operator="in" result="result2"/>
            <feComposite in="result0" in2="result2" k3="3" operator="arithmetic"/>
            <feBlend in2="result2" mode="multiply" result="fbSourceGraphic"/>
            <feColorMatrix in="fbSourceGraphic" result="fbSourceGraphicAlpha" values="1 0 0 -1 0 1 0 1 -1 0 1 0 0 -1 0 -1.8 -0.5 0 5.7 -3.5 "/>
            <feGaussianBlur in="fbSourceGraphicAlpha" result="result0" stdDeviation="0.5"/>
            <feSpecularLighting result="result6" specularExponent="3" surfaceScale="5">
                <feDistantLight azimuth="225" elevation="10"/>
            </feSpecularLighting>
            <feComposite in="result6" in2="fbSourceGraphicAlpha" operator="in" result="result2"/>
            <feComposite in="fbSourceGraphic" in2="result2" k2="1" k3="0.7" operator="arithmetic" result="result4"/>
        </filter>
        <filter id="filter4360" x="-.10732" y="-.13355" width="1.2146" height="1.2671" color-interpolation-filters="sRGB">
            <feGaussianBlur in="SourceGraphic" result="result0" stdDeviation="0.5"/>
            <feTurbulence baseFrequency="0.2" numOctaves="10" result="result1" seed="300" type="fractalNoise"/>
            <feGaussianBlur result="result8" stdDeviation="0.5"/>
            <feDisplacementMap in="result0" in2="result8" result="result7" scale="5" xChannelSelector="R"/>
            <feComposite in="result7" in2="result1" operator="in" result="result2"/>
            <feComposite in="result0" in2="result2" k3="3" operator="arithmetic"/>
            <feBlend in2="result2" mode="multiply" result="fbSourceGraphic"/>
            <feColorMatrix in="fbSourceGraphic" result="fbSourceGraphicAlpha" values="1 0 0 -1 0 1 0 1 -1 0 1 0 0 -1 0 -1.8 -0.5 0 5.7 -3.5 "/>
            <feGaussianBlur in="fbSourceGraphicAlpha" result="result0" stdDeviation="0.5"/>
            <feSpecularLighting result="result6" specularExponent="3" surfaceScale="5">
                <feDistantLight azimuth="225" elevation="10"/>
            </feSpecularLighting>
            <feComposite in="result6" in2="fbSourceGraphicAlpha" operator="in" result="result2"/>
            <feComposite in="fbSourceGraphic" in2="result2" k2="1" k3="0.7" operator="arithmetic" result="result4"/>
        </filter>
    </defs>
    <g fill="none" stroke-linecap="round">
        <g stroke="#000">
            <g stroke-linejoin="round" stroke-width="10">
                <path d="m128 151.41c-28.928 16.701-57.855 33.407-86.783 50.108"/>
                <path d="m128 59.709v91.701"/>
                <path d="m128 151.41c28.927 16.701 57.854 33.402 86.78 50.103"/>
            </g>
            <path d="m233.47 50.968h-210.94c-0.07051 42.274-0.5194 84.576 0.24302 126.83 3.6679 33.115 32.747 58.105 63.691 66.144 22.287 5.8496 45.705 4.5022 68.455 3.0505 32.973-4.3124 66.393-25.202 76.134-58.408 4.7322-19.498 1.6501-39.724 2.5296-59.556-0.0107-26.021 0.14648-52.042-0.1124-78.062z" stroke-width="1.8069"/>
            <path d="m225.52 59.708h-195.03c0.22573 37.988-0.46103 76.004 0.36089 113.97 3.6321 31.966 32.5 55.642 62.615 62.168 20.021 4.2292 40.805 3.3288 61.057 1.635 30.893-4.5394 62.158-25.297 69.41-57.127 3.1018-18.371 0.98973-37.084 1.5914-55.62-3e-3 -21.675 5e-3 -43.36-4e-3 -65.028z" stroke-linejoin="round" stroke-width="10"/>
            <rect x="20.376" y="7.9226" width="215.25" height="35.809" stroke-width="1.8242"/>
        </g>
        <rect x="26.381" y="12.319" width="203.24" height="27.016" stroke="currentColor" stroke-linejoin="round" stroke-width="1.8242"/>
    </g>
    <g fill="currentColor" stroke-width="1.0863">
        <path d="m137.48 22.39q.85915 0 1.8284.29867.96928.29867 1.6302.29867h1.6962v.74668h-1.8284q.41855.80268.41855 1.5494 0 .82135-.39652 1.4374-.3745.59734-.94726.89602-.57276.29867-1.1014.44801-.52871.13067-.99132.13067-.59479 0-1.2557-.09333-.44058.112-.88116.50401-.44059.39201-.44059.67201 0 .44801 1.7183.50401l2.8418.09334q1.2336.03734 1.9386.59734.72696.54134.72696 1.4 0 1.344-1.8284 2.2587-1.8064.91468-3.8992.91468-1.5861 0-2.7096-.54134-1.1014-.52268-1.1014-1.2507 0-.54134.48463-1.0454.48464-.50401 1.6742-1.2507-.66088-.28-.92523-.48534-.24232-.224-.24232-.50401 0-.18667.066-.35467.0881-.168.28638-.37334.2203-.20534.39653-.35467.17624-.14934.57276-.44801.41855-.29867.66087-.50401-1.1014-.46668-1.5861-1.0454-.48464-.57868-.48464-1.456 0-1.2694 1.0794-2.1467 1.0794-.89602 2.5994-.89602zm-1.9826 8.6055q-.6829.74668-.88116 1.008-.17624.28-.17624.61601 0 .61601.88117.98935.90319.37334 2.3571.37334 1.8504 0 2.996-.50401 1.1675-.50401 1.1675-1.3067 0-.50401-.63885-.70934-.61682-.20534-2.1148-.20534-2.269 0-3.5908-.26134zm.13218-6.2721q0 1.344.61681 2.184.61682.82135 1.6081.82135.77103 0 1.2336-.44801.46261-.46667.46261-1.2507 0-1.288-.66087-2.2027-.66088-.91468-1.6302-.91468-.66088 0-1.1455.39201-.48464.39201-.48464 1.4187z"/>
        <path d="m38.437 24.276h6.6969v-3.6401q0-.98935-.35247-1.2694-.33044-.29867-1.6302-.39201v-.35467h6.1461v.35467q-1.2777.09333-1.6081.39201-.33044.28-.33044 1.2694v8.3255q0 .97068.35247 1.2694.35247.29867 1.5861.39201v.35467h-6.1461v-.35467q1.2997-.056 1.6302-.37334.35247-.336.35247-1.512v-3.6401h-6.6969v3.8641q0 .97068.35247 1.2694.35247.29867 1.5861.39201v.35467h-6.1241v-.35467q1.2777-.056 1.6081-.37334.33044-.336.33044-1.512v-8.1015q0-.98935-.33044-1.2694-.33044-.29867-1.6081-.39201v-.35467h6.1241v.35467q-1.2777.09333-1.6081.39201-.33044.28-.33044 1.2694z"/>
        <path d="m50.244 26.982q0-2.2027 1.3658-3.3974 1.3878-1.1947 3.2383-1.1947 1.8064 0 2.8197 1.064.41855.44801.61682.95202.19826.48534.35247 1.4h-6.807q.08811 1.624.61682 2.464.9032 1.6054 2.8197 1.6054 1.0354 0 1.8284-.44801.79305-.44801 1.6081-1.512l.30841.13067q-1.3878 3.1174-4.6482 3.1174-1.8945 0-3.018-1.12-1.1015-1.1387-1.1015-3.0614zm1.6522-1.7734h4.4719q-.22029-1.2134-.6829-1.6614-.46261-.46668-1.476-.46668-1.9826 0-2.3131 2.128z"/>
        <path d="m62.801 18.265v5.7121q.35247-.67201 1.2116-1.12.85914-.46667 1.8504-.46667 1.6742 0 2.7977 1.176 1.1235 1.1574 1.1235 2.8747 0 1.9974-1.498 3.3601t-3.6789 1.3627q-1.3217 0-2.4893-.37334-1.1455-.39201-1.1455-.82135v-9.6882q0-.57868-.22029-.76534-.19826-.18667-.83711-.18667-.26435 0-.39652.01867v-.29867l.63884-.14934q1.9386-.48534 2.5554-.67201zm0 6.7014v4.7041q0 .35467.63885.63468.66087.26134 1.52.26134 1.3658 0 2.0928-.85868.74899-.85868.74899-2.4267 0-1.6987-.77102-2.7067-.74899-1.008-2.0267-1.008-.83711 0-1.52.42934-.6829.42934-.6829.97068z"/>
        <path d="m76.965 24.22q-.35247 0-.81508-.31734-.44058-.33601-.63885-.33601-.44058 0-.99131.54134t-.55073.98935v4.2187q0 .76534.3745 1.064.3745.28001 1.498.31734v.28h-5.309v-.28q1.0574-.14934 1.3217-.35467.26435-.224.26435-.91468v-4.6854q0-.61601-.17623-.85868-.1542-.26134-.57276-.26134-.35247 0-.77102.07466v-.29867q1.8725-.50401 3.2603-1.008l.11015.03734v1.7174q.81508-.98935 1.3878-1.3627.57276-.39201 1.2557-.39201.55073 0 .88117.28.33044.26134.33044.70934 0 .39201-.24232.61601t-.61682.224z"/>
        <path d="m78.111 26.982q0-2.2027 1.3658-3.3974 1.3878-1.1947 3.2383-1.1947 1.8064 0 2.8197 1.064.41855.44801.61682.95202.19826.48534.35247 1.4h-6.807q.08811 1.624.61682 2.464.9032 1.6054 2.8197 1.6054 1.0354 0 1.8284-.44801.79305-.44801 1.6081-1.512l.30841.13067q-1.3878 3.1174-4.6482 3.1174-1.8945 0-3.018-1.12-1.1015-1.1387-1.1015-3.0614zm1.6522-1.7734h4.4719q-.22029-1.2134-.6829-1.6614-.46261-.46668-1.476-.46668-1.9826 0-2.3131 2.128z"/>
        <path d="m94.17 25.172q-.63885-1.512-.96928-1.8854-.30841-.37334-1.0133-.42934v-.28h4.4499v.28q-.77102.09334-1.0133.24267-.24232.13067-.24232.44801 0 .20534.35247 1.0827l1.8725 4.1814 1.9826-4.1441q.3745-.78401.3745-1.232 0-.224-.22029-.35467-.19826-.13067-.74899-.224v-.28h2.7096v.28q-.33044.09334-.46261.26134-.13218.14934-.44059.74668l-3.018 6.4588q-.48464.93335-.61682.93335-.11015 0-.19826-.112-.06609-.112-.35247-.70934l-2.0047-4.4054-2.4452 4.4801q-.44058.74668-.59479.74668t-.55073-.82135l-2.9519-6.4028q-.33044-.70934-.57276-.93335-.22029-.224-.61682-.24267v-.28h3.9652v.28q-.57276.056-.79305.20534-.22029.13067-.22029.42934 0 .26134.13218.54134l2.2029 4.8721z"/>
        <path d="m114.94 24.276h6.6969v-3.6401q0-.98935-.35246-1.2694-.33044-.29867-1.6302-.39201v-.35467h6.1461v.35467q-1.2777.09333-1.6081.39201-.33044.28-.33044 1.2694v8.3255q0 .97068.35247 1.2694.35246.29867 1.5861.39201v.35467h-6.1461v-.35467q1.2997-.056 1.6302-.37334.35246-.336.35246-1.512v-3.6401h-6.6969v3.8641q0 .97068.35246 1.2694.35247.29867 1.5861.39201v.35467h-6.1241v-.35467q1.2777-.056 1.6081-.37334.33044-.336.33044-1.512v-8.1015q0-.98935-.33044-1.2694-.33043-.29867-1.6081-.39201v-.35467h6.1241v.35467q-1.2777.09333-1.6081.39201-.33043.28-.33043 1.2694z"/>
        <path d="m127.57 23.622q-.33044 0-.9032.07466v-.29867l3.3705-1.008.11015.056v6.6081q0 1.0267.26434 1.288.26436.26134 1.3658.35467v.28h-5.2209v-.28q1.1455-.056 1.4319-.336.30841-.28.30841-1.3067v-4.3121q0-.61601-.17623-.85868-.15421-.26134-.55073-.26134zm1.4319-5.3948q.48465 0 .81508.28.35247.26134.35247.65334 0 .41067-.33044.69068-.33043.26134-.83711.26134-.46261 0-.77102-.26134-.30841-.28-.30841-.69068 0-.39201.30841-.65334.33044-.28.77102-.28z"/>
        <path d="m146.73 24.574v4.4801q0 .97068.26436 1.2694.28638.29867 1.2557.37334v.28h-4.7803v-.28q.94724-.112 1.1675-.37334.24232-.28.24232-1.2694v-8.7735q0-.61601-.22029-.78401-.19827-.168-.9032-.168-.1542 0-.26434.01867v-.29867l.59477-.14934q2.3571-.61601 2.5334-.67201l.11014.056v5.6748q.77102-.85868 1.52-1.2134.74899-.35467 1.7403-.35467 2.7096 0 2.7096 2.9494v3.7147q0 .97068.22028 1.2507.2203.26134 1.1015.39201v.28h-4.6922v-.28q.94725-.07466 1.2116-.37334.28638-.29867.28638-1.2694v-3.6774q0-1.9787-1.6522-1.9787-1.2116 0-2.4452 1.176z"/>
        <path d="m167.73 18.34q.85913 0 1.9826.336 1.1235.31734 1.2997.31734.57275 0 .70493-.65334h.46261l.48464 3.9947h-.55072q-.46262-1.4374-1.3218-2.184-1.1675-1.0454-2.7096-1.0454-1.0133 0-1.6522.48534-.63884.48534-.63884 1.2694 0 .76534.74899 1.4187.77102.65334 1.8504 1.176 1.0794.50401 2.1588 1.064 1.0794.56001 1.8284 1.4187.77102.84001.77102 1.904 0 1.456-1.2997 2.4454-1.2997.97068-3.1942.97068-1.0354 0-2.247-.33601-1.1896-.336-1.3878-.336-.24232 0-.41855.18667-.17624.18667-.19827.44801h-.48463l-.66088-3.9574h.48464q.85914 1.6987 1.9386 2.5014 1.0794.80268 2.5333.80268 1.2116 0 1.9606-.57868.74899-.57868.74899-1.5307 0-.33601-.0881-.57868-.066-.24267-.37449-.67201-.30841-.42934-1.1015-.93335-.77101-.52268-2.0267-1.1014-1.8284-.82135-2.6435-1.6614-.81507-.84002-.81507-1.96 0-1.4934 1.2116-2.352 1.2336-.85868 2.6435-.85868z"/>
        <path d="m175.11 27.02q0-1.176.46262-2.0907.48463-.93335 1.2116-1.456.749-.54134 1.5641-.80268.81507-.28 1.6081-.28 1.3658 0 2.3571.57868 1.0133.56001 1.0133 1.344 0 .31734-.30841.56001-.30841.224-.74899.224-.33044 0-.61682-.224-.28638-.24267-.41856-.61601l-.13217-.44801q-.17623-.50401-.44058-.69068t-.83711-.18667q-1.3438 0-2.1809.91468-.81509.89602-.81509 2.352 0 1.6054.94726 2.6134.94725 1.008 2.4232 1.008.94726 0 1.6302-.39201.70493-.39201 1.498-1.3814l.30841.20534q-.35247.57868-.59479.87735-.2203.29867-.79306.87735-.55072.57868-1.2997.87735-.749.28-1.6522.28-1.8284 0-3.018-1.1574-1.1676-1.176-1.1676-2.9867z"/>
        <path d="m187.29 24.574v4.4801q0 .97068.26435 1.2694.28638.29867 1.2557.37334v.28h-4.7803v-.28q.94726-.112 1.1676-.37334.24233-.28.24233-1.2694v-8.7735q0-.61601-.2203-.78401-.19826-.168-.9032-.168-.1542 0-.26435.01867v-.29867l.59479-.14934q2.3571-.61601 2.5334-.67201l.11014.056v5.6748q.77102-.85868 1.52-1.2134.749-.35467 1.7403-.35467 2.7096 0 2.7096 2.9494v3.7147q0 .97068.22029 1.2507.22029.26134 1.1014.39201v.28h-4.6922v-.28q.94725-.07466 1.2116-.37334.28638-.29867.28638-1.2694v-3.6774q0-1.9787-1.6522-1.9787-1.2116 0-2.4452 1.176z"/>
        <path d="m200.33 22.39q2.1148 0 3.4806 1.1947t1.3658 3.024q0 1.9227-1.4099 3.2481-1.4099 1.3067-3.4806 1.3067t-3.4586-1.2507q-1.3658-1.2694-1.3658-3.1547 0-1.9414 1.3438-3.1547 1.3658-1.2134 3.5247-1.2134zm-2.8858 3.4534q0 .76534.1542 1.568.17624.78401.5287 1.5307.35247.74668.96929 1.232.63883.46667 1.476.46667 1.2116 0 1.8945-.89602.70493-.89601.70493-2.4827 0-1.904-.88117-3.1174-.85913-1.232-2.247-1.232-1.1675 0-1.8945.80268-.70493.78401-.70493 2.128z"/>
        <path d="m211.32 22.39q2.1148 0 3.4806 1.1947t1.3658 3.024q0 1.9227-1.4099 3.2481-1.4099 1.3067-3.4806 1.3067t-3.4586-1.2507q-1.3658-1.2694-1.3658-3.1547 0-1.9414 1.3438-3.1547 1.3658-1.2134 3.5247-1.2134zm-2.8858 3.4534q0 .76534.1542 1.568.17624.78401.52871 1.5307.35246.74668.96928 1.232.63885.46667 1.476.46667 1.2116 0 1.8945-.89602.70493-.89601.70493-2.4827 0-1.904-.88117-3.1174-.85913-1.232-2.247-1.232-1.1676 0-1.8945.80268-.70493.78401-.70493 2.128z"/>
        <path d="m217.22 19.348v-.29867q2.1589-.44801 3.5247-.82135l.066.03734v11.163q0 .74668.28638.98935.30841.224 1.3438.28v.28h-5.1769v-.28q1.0354-.09333 1.3658-.336.33044-.26134.33044-.98935v-8.9228q0-.65334-.19827-.89601t-.72696-.24267q-.15421 0-.6829.03734z"/>
    </g>
    <g transform="translate(-.02988 3.1623)" stroke="#000">
        <g stroke-linecap="round" stroke-linejoin="round">
            <path d="m176.43 147.44 6.9858.38572-.90029 7.3272 1.0638.12078-.0636 1.1722-2.3591 2.3235.0766 2.2241-3.0703.007.0547-2.2139-2.6293-2.3946-.0677-1.0671 1.3824.0855z" stroke-width=".4958px"/>
            <path d="m174.94 145.61c1.8824.92753 3.4657.85508 5.8552.97971 1.6443.0857 4.0939.0923 3.1388-.56787-.95516-.66018-6.7846-1.5506-8.994-.41184z" color="#000000" stroke-width=".4958" style="-inkscape-stroke:none"/>
            <path d="m174.78 138.38.11523 5.318 8.7347.77004.67687-5.6109z" stroke-width=".4958px"/>
            <path d="m173.75 136.87c3.0767.8732 11.428.55537 11.587.23361-.16208-.48504-1.0534-.55963-6.5096-.92389 0 0-4.8672-.3956-5.0775.69028z" color="#000000" stroke-width=".4958" style="-inkscape-stroke:none"/>
            <path d="m175.28 134.61 9.4798.37048-.054-1.1462.37834-.056-.15779-2.0684.64614-.14814.0444-3.3317.56108-.50141-.0381-1.944-12.023-.21582.0279 1.7094.81259.12023z" stroke-width=".4958px"/>
            <path d="m179.87 122.82c-2.6098-.20696-7.1127-.17564-6.3786.80761.3152.42222 3.9378.79583 6.1416.83045 1.9684.031 5.2402.0547 7.0001-.41115.13692.002.24964-.10711.25176-.24402.002-.13692-.10711-.24966-.24402-.25178-2.3622-.6995-4.6174-.56036-6.7708-.73111z" color="#000000" stroke-width=".4958" style="-inkscape-stroke:none"/>
            <path d="m174.2 112.79-.21114 8.3486 11.707.35208c.20858-2.7936.46087-5.6484.59296-8.5322z" stroke-width=".4958px"/>
            <path d="m171.2 107.79 16.559.32459 4.6498-3.9223-9.1845-.022-.99361-.4968-2.0134.0649-.29761-1.091-4.1382.10052.20428 1.0239-3.7061.14891-.0816-.79803-1.7432-.0321-.0354.57742-.87334.0233-.35235-.55584-1.3236.0317z" stroke-width=".4958px"/>
        </g>
        <g transform="matrix(.4958 0 0 .4958 -77.591 -126.32)">
            <path d="m506.13 456.59c-18.758-15.183-18.771-34.423 1.9908-52.138-18.402 31.822-8.9172 39.246-1.9908 52.138z" color="#000000" style="-inkscape-stroke:none"/>
            <g stroke-width="1px">
                <path d="m506.24 451.09c-2.0148-2.1943-5.9185-7.2102-6.616-13.268-.69746-6.0574 1.8125-13.155 6.7881-20.988 4.9756-7.8331 12.416-16.401 16.199-20.476 3.783-4.0759 3.9076-3.6612 5.1118-1.8024s3.4875 5.1616 4.333 8.6473c.84549 3.4857.25403 7.1541-1.3263 10.49-1.5803 3.336-4.1494 6.3399-7.9623 9.8816-3.8129 3.5418-8.8694 7.6212-11.453 12.454-2.584 4.8328-2.6951 10.417-2.814 13.523s-.2456 3.7329-2.2604 1.5386z"/>
                <path d="m531.22 421.3c1.1691 2.4122 3.4395 5.9129 5.0622 9.9997s2.5981 8.7596 2.269 12.96-1.9622 7.9295-4.0685 10.653-4.6859 4.442-8.2084 4.4583-7.9885-1.6702-10.854-3.5875c-2.8658-1.9172-4.1308-4.0658-4.3709-6.7528-.24013-2.687.54544-5.9119 2.2692-9.0035 1.7237-3.0916 4.3854-6.049 7.0539-8.5022s5.3434-4.402 6.9352-6.8651 2.1006-5.441 2.3886-6.2683c.28804-.82727.35503.4961 1.5241 2.9082z"/>
                <path d="m533.69 456.11c3.7552-2.262 9.3276-6.4238 11.727-11.654 2.3997-5.2303 1.6265-11.53-1.023-16.72-2.6495-5.1899-7.1762-9.2698-9.6034-11.471-2.4273-2.2014-2.755-2.5242-1.9758-1.2334.77918 1.2908 2.6654 4.1948 4.3704 7.1761s3.2286 6.0395 4.329 9.0943c1.1003 3.0548 1.7775 6.1058.33443 10.485-1.443 4.3794-5.0057 10.088-7.9906 13.194-2.9849 3.1062-5.3927 3.6106-5.6273 3.6817-.23464.0711 1.7039-.29088 5.4591-2.5528z"/>
            </g>
        </g>
        <path d="m179.81 109.42c-3.1132-.24357-8.4845-.20671-7.6089.95052.37599.49693 4.6973.93664 7.3262.9774 2.3481.0364 6.251.0644 8.3502-.4839.16333.002.2978-.12606.30034-.28721.002-.16115-.12777-.29382-.2911-.29633-2.8179-.82328-5.508-.65952-8.0768-.86048z" color="#000000" stroke-linecap="round" stroke-linejoin="round" stroke-width=".58747" style="-inkscape-stroke:none"/>
    </g>
    <g transform="translate(-.02988 .039139)">
        <path d="m75.393 78.789c-.86412-.0544-1.656.28631-2.377.83594-.72097.54967-1.4072 1.3379-2.0781 2.7363-.67095 1.3985-1.3311 3.4003-1.8906 5.3223-.55949 1.9219-1.0183 3.7632-1.3594 4.7578-.34108.99449-.57214 1.1614-.72852 1.623-.15638.46162-.19258 1.0499-.03516 1.4844.07869.21723.15355.26851.23633.61914.08277.35063.16804.99822.20508 2.2715.07407 2.5466-.03788 7.6024-.06641 12.051-.02853 4.4484.02587 8.2945-.07031 10.305-.04809 1.0051-.13452 1.5532-.21484 1.8867-.08033.33354-.15943.45994-.21484.6875-.11076.45486-.03838.98605.13477 1.3613.0865.18749.14531.22672.2168.53711.07148.31038.1418.88379.17773 2.0039.07188 2.2403.0091 6.6735.16016 10.092.15103 3.4183.51712 5.8162.82227 7.8086s.54211 3.5744.75 4.2754c.05197.17521.10293.29709.16406.39453.06113.0974.14689.17198.2207.20898.04903.0246.049.0194.05859.0215.0232.0616.07801.34177.1543.67968.07737.34274.18994.76137.38281 1.1797.38572.83659 1.0532 1.6004 1.4883 2.0332.37212.3702.56666.45792.74219.54297l.41992 1.4707a.26354.26354 0 00.50391.0117l.50586-1.4883c.43456-.3697.9077-.77764 1.584-2.0195.70565-1.2958 1.6432-3.4634 2.2168-5.1699.57355-1.7065.77336-2.9298 1.2012-4.8828.42782-1.953 1.091-4.6748 1.6758-8.9219.58476-4.2472 1.091-10.016 1.3398-15.389.24884-5.3728.23904-10.345.16602-15.533-.07302-5.1882-.2105-10.599-.19141-13.182.0061-.82733.0301-1.3626.06641-1.6641a.26354.26354 0 00-.0059-.0957c-.03093-.1236-.05841-.25942-.0957-.40039-.14476-.54738-.30348-1.0883-.48633-1.6152-.09157-.26389-.18934-.52328-.29297-.7793-.10385-.25656-.2158-.50949-.33398-.75781-.11809-.24815-.24289-.49325-.375-.73242-.13189-.23878-.27022-.47237-.41406-.70312-.28755-.46127-.59677-.90651-.91992-1.3418-.32318-.43532-.66029-.86034-1.0039-1.2793-.09291-.11329-.18667-.22155-.27539-.32812a.26354.26354 0 00-.03906-.03906c-.66074-.52085-1.404-.83349-2.125-.87891zm-.0332.52539c.58639.03694 1.2336.30244 1.8203.76172.08375.09995.16566.19727.24414.29297.34009.41465.67192.83363.98828 1.2598.31638.42618.61801.85993.89648 1.3066.13916.22324.27315.44934.40039.67969.12701.22995.24786.46469.36133.70312.11339.23826.22013.48102.32031.72852.1004.24802.19462.49863.2832.75391.17748.51143.33247 1.0407.47461 1.5781.02897.10953.0553.2312.08594.35742-.0389.34759-.06049.85807-.06641 1.6641-.01927 2.6066.11844 8.0093.19141 13.193.07296 5.184.08015 10.143-.16797 15.5-.24812 5.3572-.75242 11.118-1.334 15.342-.58156 4.2239-1.2396 6.9166-1.6699 8.8809-.43028 1.9642-.62444 3.1586-1.1855 4.8281-.5611 1.6695-1.4987 3.8355-2.1797 5.0859-.68098 1.2505-1.0802 1.577-1.5293 1.957a.26354.26354 0 00-.08008.11719l-.24609.71875-.20898-.73633a.26354.26354 0 00-.14648-.16797c-.18469-.0828-.30418-.1266-.70898-.5293-.40459-.40246-1.0445-1.1452-1.3828-1.8789-.16914-.36683-.27412-.74849-.34766-1.0742-.07353-.32573-.10135-.57252-.18164-.77149-.04019-.0996-.11958-.19539-.19922-.24023-.07964-.0448-.11218-.0463-.10938-.0449.0028.001.01187.0149-.0098-.0195-.02164-.0345-.06161-.1158-.10547-.26368-.17541-.59143-.42925-2.2129-.73438-4.2051-.30512-1.9922-.66655-4.3602-.81641-7.752-.14986-3.3917-.08725-7.8137-.16016-10.086-.03645-1.1361-.10574-1.7335-.19141-2.1055-.08567-.37196-.1995-.52497-.25195-.63867-.10477-.22709-.17114-.72986-.10156-1.0156.03476-.14277.12574-.31135.2168-.68945.09106-.37811.17749-.95871.22656-1.9844.09815-2.0513.04378-5.884.07227-10.326.02849-4.4421.13956-9.4883.06445-12.07-.03755-1.2911-.11966-1.9655-.2168-2.377-.09714-.41146-.21472-.56221-.25586-.67578-.08228-.22711-.07249-.80938.03906-1.1387.11155-.3293.37-.5738.72852-1.6191.35849-1.0452.81142-2.8741 1.3672-4.7832.55575-1.9091 1.2152-3.8976 1.8594-5.2402.6442-1.3427 1.266-2.0454 1.9238-2.5469.65786-.50154 1.3157-.77308 2.0234-.72852z" color="#000000" stroke="#000" stroke-linecap="round" stroke-linejoin="round" stroke-width=".4"/>
        <path d="m77.354 79.876c.09086.10914.18383.2166.27381.32631.34185.4168.67665.83846.99642 1.2692.31976.43073.62488.87079.90789 1.3248.1415.227.27703.45717.4066.69173.12956.23456.25272.47417.3685.71746.11579.24329.22429.49117.32631.7432.10202.25202.19813.50728.28822.76687.18016.51917.33829 1.0531.48174 1.5955.03452.13061.06176.2657.0947.39733.08278-.68698.2406-.39218.48174.2244.35483.90728.8889 2.5058 1.1889 3.9002.30001 1.3944.3663 2.5847.43233 3.7757l.49615.20484-.1369 4.136-.62688.34689c-.13695 1.3826-.27401 2.7652-.18837 3.6532.08564.88797.39329 1.2814.78231.47144.38902-.80994.85974-2.8234 1.1899-5.0377.33019-2.2142.51964-4.6297-.02266-7.4237-.54228-2.794-1.8167-5.9659-2.8596-7.5534s-1.8542-1.5895-2.5456-2.0742c-.69141-.48465-1.262-1.4526-1.9712-2.139-.1176-.11382-.24009-.21906-.36439-.31704z" stroke="#000" stroke-width=".2"/>
        <path d="m81.604 113.72c-.06911.0113-.13096.0493-.1719.10598-2.7758 3.4837-9.8909.74064-10.768.69145-.77517-.0434-1.7503 1.9036 3.4463 2.4549 1.7328.18382 4.5911.13511 5.9201-.36078 2.4198-.90284 1.3297-1.7043 1.6922-2.3703.06943-.12758.06686-.23006-.05065-.31545-.05664-.0413.0011-.21686-.06819-.20586z" color="#000000" style="-inkscape-stroke:none"/>
        <path d="m70.605 118.52c-.04085-.001-.0794-4e-4-.11632.001-.44299.017-.60748.22923-.68246 1.5543-.09997 1.7668-.04164 5.5116-.04322 8.3635-.0016 2.8519-.06321 4.8109-.41278 5.5956-.31433.70561-.86352.45589-1.4349.11636.01286 1.0602.03499 2.0968.07103 3.0953l.04321.52806c.0088.004.01803.006.02678.01.09108.0395.18094.0832.26764.13176.08669.0486.17113.10247.25219.16264.08106.0602.15848.1273.23264.20176.07416.0744.14501.15682.21102.24806.06601.0912.12766.19097.18426.30162.05659.1106.10804.23152.1544.36027.04638.12874.08678.26595.12249.40762.03573.14167.06595.28804.09058.43748.02461.14944.04454.30191.05765.45394.01313.15204.02044.30344.02161.45292.0011.14947-.0043.29675-.01544.4385-.01126.14175-.02846.27877-.0525.40763-.02403.12886-.05434.24947-.09161.36027-.03726.11085-.08185.21116-.13176.30263-.04991.0915-.1059.17438-.16675.2491-.06086.0747-.12649.14121-.19661.20176-.07013.0606-.14464.11473-.22234.16367-.0777.0489-.1583.0928-.2419.13278-.01765.009-.03668.0145-.05456.0226.11509.87615.23405 1.6956.3469 2.4324.14814.96724.28051 1.8305.40145 2.5487.40161-.65532.8001-1.1546 1.1848-.83583.48024.39791.93837 2.0614 1.3001 2.734.36172.67259.62761.35503.83893-.77201.21132-1.127.36819-3.064.51364-6.068.14546-3.0041.27981-7.0763.4138-11.148l-.47659-1.0973c.008-.52908.01596-1.0573.0628-2.2368.0468-1.1795.13179-3.0084.43645-4.8822.30464-1.8738.82829-3.7907.35204-4.6589-.47625-.86812-1.9532-.68699-2.8204-.70202-.1626-.002-.30363-.013-.42616-.0154z"/>
        <path d="m67.701 100.21c.11202-.009.22182-.0225.34072-.0185.09196.003.18422.0134.27587.0329s.18223.0483.26969.0916c.08747.0433.17177.10054.25117.17499.0794.0744.15385.16603.22131.27896.06746.11291.12848.24682.18014.40556.05165.15874.09464.34291.12661.55483.06395.42381.10301.9567.13691 1.5451.03389.58836.06246 1.2316.10396 1.8745.02077.32143.04438.64287.07412.95729.02973.31443.0647.62247.10807.91613.04338.29367.09573.5736.15749.83275.06177.25915.13337.49732.21822.7082s.18292.39453.29028.55379c.10736.15927.22388.29398.34792.40866.12404.11473.25524.20902.39013.28616.13488.0772.27391.13762.4138.18425.13989.0467.28091.0798.41998.10297.13907.0231.27623.0355.40865.0422.26484.0135.5101.001.71334-.009.81299-.0399.94627-.0427 1.0798-.0453l.22749-24.234c.21162-.18273.42317-.36527.5857-.53836.08126-.08654.15015-.17065.20072-.25116.0506-.08051.08296-.15748.09058-.22954.0076-.07207-.01001-.13965-.04322-.20999-.0333-.07034-.08229-.1431-.13999-.22749s-.12381-.18021-.1894-.2944-.1314-.24683-.18837-.40659c-.11394-.31952-.19334-.74678-.30881-1.0952-.02888-.08712-.06032-.16846-.0947-.24292-.03436-.07447-.0722-.14159-.11426-.19764-.04205-.05605-.08809-.10197-.13999-.13382-.05191-.03183-.10903-.04959-.17294-.05148-.06391-.0021-.13517.01214-.21102.04322-.07584.03114-.15642.07979-.2419.14411-.08548.06433-.17587.14519-.26866.24293-.0928.09774-.18836.21143-.28616.34278s-.19697.27952-.29748.44468c-.1005.16516-.20276.3474-.30366.54659-.1009.19918-.20056.41611-.29954.64952-.09899.23341-.19655.48359-.29131.75143-.18953.53569-.36874 1.1405-.53732 1.7612-.16858.62076-.32675 1.2571-.47556 1.857-.14881.59982-.28771 1.1628-.41792 1.6356-.06511.23644-.12873.45028-.1894.63511s-.1186.34118-.17499.46115-.11613.19734-.17705.23881c-.03047.02071-.06141.03262-.09264.03605-.03125.0031-.06191-.0021-.09367-.01439-.06353-.02482-.12821-.07962-.19249-.15852-.06427-.07888-.12833-.18187-.19146-.30263-.06312-.12076-.12521-.25927-.18528-.40968-.06008-.15041-.11882-.31183-.17396-.47968-.05143-.15656-.08827-.31718-.13381-.47865-.27348.99808-.51641 1.8803-.71952 2.4725-.3498 1.0199-.59482 1.2247-.72878 1.6202-.13396.39546-.15692.9806-.03705 1.3114.11984.33081.38244.40741.45703 2.9718.01549.53242.02082 1.1923.02266 1.9115z"/>
    </g>
    <g fill="none" stroke="#000" stroke-linecap="round" stroke-linejoin="round">
        <path d="m130.74 216c2.6066 2.8914 7.1697 1.5644 10.618 1.8197 10.705.14669 21.416.72358 32.117.55134 4.0637-.25856 1.662-4.7032.77513-6.921-2.8888-7.6012-5.8607-15.176-8.6162-22.822-1.1186-3.0756-4.0231-5.7047-7.479-5.2406-8.0948.0625-16.215-.21677-24.299-.14726-1.2733.14318-2.3546.8336-3.2667 1.6948" stroke-width="1.6"/>
        <path d="m129.69 216c-2.6066 2.8914-7.1697 1.5644-10.618 1.8197-10.705.14669-21.416.72358-32.117.55134-4.0637-.25856-1.662-4.7032-.77513-6.921 2.8888-7.6012 5.8607-15.176 8.6162-22.822 1.1186-3.0756 4.0231-5.7047 7.4791-5.2406 8.0948.0625 16.215-.21677 24.299-.14726 1.2733.14318 2.3546.8336 3.2667 1.6948" stroke-width="1.6"/>
        <g stroke-width="1px">
            <path d="m96.576 206.04c1.5559-5.11 3.1119-10.22 4.6678-15.33 1.2292-4.0853 5.769-4.5324 9.3582-4.2955 6.1382-.22181 12.288.51433 18.408-.0376 2.3017 1.2514.28673 4.9059.80401 7.1814.0751 6.287.15029 12.574.22543 18.861-5.5339.14983-11.069.42527-16.596-.0321-4.8172-.30792-9.6338-.45798-14.454-.0848-2.4632.52136-4.9053-.68425-3.2216-3.3574.23364-.9778.51694-1.944.80825-2.9049z" filter="url(#filter4181)"/>
            <path d="m165.51 206.1c-1.5578-5.1007-3.1155-10.201-4.6733-15.302-1.1369-3.7578-5.2466-4.5808-8.6644-4.2812-6.439-.14601-12.901.17114-19.316-.46791-3.4721-.19055-3.0198 3.9113-2.8699 6.2603.11417 6.3785.22835 12.757.34252 19.136 1.388 4.0538 5.9724 1.437 8.9805 1.6059 7.2236.083 14.414-1.2346 21.647-.86351 1.8644-.13561 3.8718.43216 5.6256-.26199.58429-1.6559-.78111-4.0283-1.0729-5.8252z" filter="url(#filter4304)"/>
            <path d="m100.78 187.51c-2.8802 7.3962-5.3242 14.954-7.0517 22.705-1.5672 5.186 5.6863 3.2581 8.5899 3.6705 8.3617.15753 16.721.42432 25.083.58902" filter="url(#filter4134)"/>
            <path d="m127.72 216.04c-12.387.0117-24.773.0235-37.16.0352-.47978-1.1848-1.8159-2.2979-.92739-3.5971 3.1588-9.296 6.3176-18.592 9.4764-27.888 8.8421.30937 17.7.18252 26.547.31299" filter="url(#filter4087)"/>
            <path d="m133.95 184.54c8.648.41255 17.315.7045 25.951 1.1922 1.5644-.0822 1.6876 1.3277 2.036 2.5045 2.6119 8.309 5.2237 16.618 7.8356 24.927-.75674 1.2485-2.0618 1.1826-3.357 1.1403-12.103.27191-24.205.54381-36.308.81572" filter="url(#filter4332)"/>
            <path d="m133.89 216.48 38.202.34107c-.0879-3.6385-1.6832-6.9622-2.6498-10.417-2.1423-6.7606-4.2846-13.521-6.427-20.282" filter="url(#filter4360)"/>
        </g>
    </g>
</svg>
