<svg version="1.1" viewBox="0 0 32 32" xmlns="http://www.w3.org/2000/svg">
   <g>
      <path d="m16 1.709a8.7681 8.7681 0 0 0-8.7676 8.7676 8.7681 8.7681 0 0 0 1.2637 4.5059h-0.017578l3.7637 6.6348 3.7656 6.6367 3.7637-6.6367 3.7617-6.6367h-0.0098a8.7681 8.7681 0 0 0 1.2442-4.5039 8.7681 8.7681 0 0 0-8.7676-8.7676zm0 5.0352a3.733 3.733 0 0 1 0.30664 0.011719 3.733 3.733 0 0 1 0.30664 0.039063 3.733 3.733 0 0 1 0.30274 0.0625 3.733 3.733 0 0 1 0.29688 0.087891 3.733 3.733 0 0 1 0.28516 0.11328 3.733 3.733 0 0 1 0.27734 0.13672 3.733 3.733 0 0 1 0.26562 0.15625 3.733 3.733 0 0 1 0.25 0.17969 3.733 3.733 0 0 1 0.23633 0.19922 3.733 3.733 0 0 1 0.2168 0.21875 3.733 3.733 0 0 1 0.20117 0.23438 3.733 3.733 0 0 1 0.17969 0.25195 3.733 3.733 0 0 1 0.1582 0.26367 3.733 3.733 0 0 1 0.13477 0.27734 3.733 3.733 0 0 1 0.11133 0.28906 3.733 3.733 0 0 1 0.08789 0.29492 3.733 3.733 0 0 1 0.06445 0.30078 3.733 3.733 0 0 1 0.03711 0.30664 3.733 3.733 0 0 1 0.01367 0.30859 3.733 3.733 0 0 1-0.09375 0.83203 3.733 3.733 0 0 1-0.27539 0.78711 3.733 3.733 0 0 1-0.44531 0.70898 3.733 3.733 0 0 1-0.5918 0.58984 3.733 3.733 0 0 1-0.70703 0.44531 3.733 3.733 0 0 1-0.78906 0.27734 3.733 3.733 0 0 1-0.83007 0.093749 3.733 3.733 0 0 1-0.83203-0.09375 3.733 3.733 0 0 1-0.78906-0.27734 3.733 3.733 0 0 1-0.70703-0.44531 3.733 3.733 0 0 1-0.5918-0.58984 3.733 3.733 0 0 1-0.44336-0.70898 3.733 3.733 0 0 1-0.27734-0.78711 3.733 3.733 0 0 1-0.0918-0.83203 3.733 3.733 0 0 1 0.0918-0.83008 3.733 3.733 0 0 1 0.27734-0.78906 3.733 3.733 0 0 1 0.44336-0.70703 3.733 3.733 0 0 1 0.5918-0.5918 3.733 3.733 0 0 1 0.70703-0.44531 3.733 3.733 0 0 1 0.78906-0.27539 3.733 3.733 0 0 1 0.83203-0.09375z" stroke-width="0"/>
      <path d="m12.408 23.864c-2.0955 0.14222-3.976 0.40451-5.4933 0.75823-1.1719 0.2732-2.1298 0.59752-2.82 0.97792-0.6902 0.3804-1.1587 0.84373-1.1587 1.4095 0 0.56581 0.46846 1.0291 1.1587 1.4095 0.6902 0.3804 1.6481 0.70472 2.82 0.97792 2.3439 0.5464 5.5464 0.87877 9.0858 0.87877s6.7441-0.33237 9.088-0.87877c1.1719-0.2732 2.1277-0.59752 2.8179-0.97792 0.6902-0.3804 1.1587-0.84373 1.1587-1.4095 0-0.56581-0.46846-1.0291-1.1587-1.4095-0.6902-0.3804-1.6459-0.70472-2.8179-0.97792-1.5137-0.35288-3.3903-0.61383-5.4804-0.75629l-0.36248 0.57548c2.1852 0.13518 4.1409 0.4002 5.6767 0.75823 1.1324 0.26398 2.0403 0.58001 2.6388 0.90988 0.5985 0.32987 0.84148 0.64626 0.84148 0.90016 0 0.2539-0.24298 0.57029-0.84148 0.90016-0.5985 0.32987-1.5064 0.6459-2.6388 0.90988-2.2647 0.52795-5.4287 0.85933-8.9218 0.85933s-6.6571-0.33138-8.9218-0.85933c-1.1324-0.26398-2.0403-0.58001-2.6388-0.90988-0.5985-0.32987-0.84148-0.64626-0.84148-0.90016 0-0.2539 0.24298-0.57029 0.84148-0.90016 0.5985-0.32987 1.5064-0.6459 2.6388-0.90988 1.5394-0.35886 3.5006-0.62335 5.6918-0.75823z" stroke-width=".62919"/>
   </g>
</svg>
